<?xml version="1.0" encoding="utf-8"?>
<!-- Generator: Adobe Illustrator 23.0.0, SVG Export Plug-In . SVG Version: 6.00 Build 0)  -->
<svg version="1.1" id="Layer_1" xmlns="http://www.w3.org/2000/svg" xmlns:xlink="http://www.w3.org/1999/xlink" x="0px" y="0px"
	 viewBox="0 0 800 800" style="enable-background:new 0 0 800 800;" xml:space="preserve">
<style type="text/css">
	.st0{fill:#F6F4F4;}
	.st1{opacity:7.000000e-02;fill:#231F20;enable-background:new    ;}
	.st2{fill:#C62C34;}
	.st3{fill:#DC5053;}
	.st4{opacity:0.1;fill:#DC5053;enable-background:new    ;}
	.st5{fill:#FFE6E6;}
	.st6{fill:#E88585;}
	.st7{fill:#9E3939;}
	.st8{fill:#464E57;}
	.st9{fill:#22272B;}
	.st10{fill:#2F363E;}
	.st11{fill:#DDE4E8;}
	.st12{fill:#C1CDD2;}
	.st13{fill:#344756;}
	.st14{fill:#435B73;}
	.st15{fill:#73BCC4;}
</style>
<g>
	<g>
		<path class="st0" d="M270.3,240.5v174.7c0,9.1-7.1,17-16.3,17H58.3c-9.1,0-18.1-7.9-18.1-17V240.5c0-9.1,9-17.3,18.1-17.3H254
			C263.1,223.2,270.3,231.4,270.3,240.5z"/>
		<path class="st1" d="M283.3,216.2v33.2c0,7.3-4.7,13.6-11.2,16c-0.5,0.2-1,0.3-1.5,0.5v7.6H41.9v-7.6c-7.3-1.9-12.7-8.5-12.7-16.4
			v-33.2c0-9.4,7.6-17,17-17h220C275.6,199.2,283.3,206.8,283.3,216.2z"/>
		<path class="st0" d="M283.3,216.2v33.2c0,7.3-4.7,13.6-11.2,16c-0.5,0.2-1,0.3-1.5,0.5c-1.4,0.4-2.8,0.6-4.3,0.6h-220
			c-1,0-2-0.1-2.9-0.3c-0.5-0.1-1-0.2-1.4-0.3c-7.3-1.9-12.7-8.5-12.7-16.4v-33.2c0-9.4,7.6-17,17-17h220
			C275.6,199.2,283.3,206.8,283.3,216.2z"/>
		<rect x="143.3" y="199.2" class="st2" width="27.4" height="231.3"/>
		<rect x="143.3" y="266.4" class="st3" width="27.4" height="165.7"/>
		<g>
			<rect x="40.3" y="302.1" class="st3" width="230.1" height="27.4"/>
			<rect x="40.3" y="302.1" class="st4" width="230.1" height="27.4"/>
		</g>
		<path class="st3" d="M147,187.7l-46.2-33c0,0-27.3-22.3-34.2,4.5c0,0-9,15-5.3,40h90.5C151.8,199.2,146.7,195.2,147,187.7z"/>
		<polygon class="st2" points="90.1,148.5 118.1,115.9 146.9,182.2 148.5,191.2 139.9,186.2 		"/>
		<path class="st3" d="M169.9,187.7l46.2-33c0,0,27.3-22.3,34.2,4.5c0,0,9,15,5.3,40h-90.5C165.2,199.2,170.3,195.2,169.9,187.7z"/>
		<polygon class="st2" points="226.9,148.5 198.9,115.9 170.1,182.2 168.5,191.2 177.1,186.2 		"/>
		<path class="st2" d="M121.8,199.4h2c0-0.1,0-0.1,0-0.2c0-1.1-0.9-2-2-2h-2.3h-0.8H97.3c-1.3,0-2.3,1.1-2.3,2.4L88,250.5
			c0,1.3,1,1.9,2.2,1.4l8.6-3.7c1.2-0.5,3.1-0.5,4.3-0.1l9.6,3.8c1.2,0.5,2.2-0.2,2.2-1.5L121.8,199.4z"/>
		<path class="st2" d="M189.5,199.4h-2c0-0.1,0-0.1,0-0.2c0-1.1,0.9-2,2-2h2.3h0.8H214c1.3,0,2.3,1.1,2.3,2.4L225,236
			c0,1.3-1,1.9-2.2,1.4l-8.6-3.7c-1.2-0.5-3.1-0.5-4.3-0.1l-9.6,3.8c-1.2,0.5-2.2-0.2-2.2-1.5L189.5,199.4z"/>
		<path class="st2" d="M173.5,195.1c0,2.5-2,4.5-4.5,4.5h-22.5c-2.5,0-4.5-2-4.5-4.5v-15.2c0-2.5,2-4.5,4.5-4.5h22.5
			c2.5,0,4.5,2,4.5,4.5V195.1z"/>
	</g>
	<g>
		<path class="st5" d="M650.2,145.7l116.3,141c0.3,0.4,0.6,0.8,0.9,1.2c5.6,7.9,4.2,18.9-3.4,25.2L457.3,565.9
			c-7.6,6.3-18.6,5.5-25.3-1.4c-0.3-0.3-0.7-0.7-1-1.1l-116.3-141c-0.1-0.2-0.3-0.3-0.4-0.5c-6.1-8-4.9-19.4,2.9-25.8l306.6-252.9
			c7.8-6.4,19.3-5.5,25.9,2C649.9,145.4,650,145.5,650.2,145.7z"/>
		<path class="st6" d="M649.8,145.2c-6.6-7.5-18.1-8.5-25.9-2L576.7,182L364.3,357.3l-47.1,38.8c-7.8,6.4-9,17.9-2.9,25.8
			c0.1,0.2,0.3,0.3,0.4,0.5l31.9,38.7l52.5,63.6l0,0l31.9,38.7c0.1,0.2,0.3,0.3,0.4,0.5l0,0c0.2,0.2,0.4,0.4,0.6,0.6c0,0,0,0,0,0
			c0,0,0.1,0.1,0.1,0.1c0.2,0.2,0.4,0.4,0.5,0.5c0.1,0.1,0.1,0.1,0.2,0.2c0.2,0.2,0.3,0.3,0.5,0.4c0.1,0.1,0.2,0.1,0.2,0.2
			c0.2,0.1,0.3,0.3,0.5,0.4c0.1,0.1,0.2,0.1,0.3,0.2c0.1,0.1,0.3,0.2,0.4,0.3c0.1,0.1,0.2,0.1,0.3,0.2c0.1,0.1,0.3,0.2,0.4,0.3
			c0.1,0.1,0.2,0.1,0.3,0.2c0.1,0.1,0.3,0.2,0.4,0.2c0.1,0.1,0.3,0.1,0.4,0.2c0.1,0.1,0.3,0.1,0.4,0.2s0.3,0.1,0.4,0.2
			s0.3,0.1,0.4,0.2c0.1,0.1,0.3,0.1,0.4,0.2c0.1,0,0.3,0.1,0.4,0.2s0.3,0.1,0.4,0.2c0.1,0,0.3,0.1,0.4,0.1c0.1,0,0.3,0.1,0.4,0.1
			c0.1,0,0.3,0.1,0.4,0.1c0.2,0,0.3,0.1,0.4,0.1c0.1,0,0.3,0.1,0.4,0.1c0.2,0,0.3,0.1,0.5,0.1c0.1,0,0.3,0.1,0.4,0.1
			c0.2,0,0.3,0,0.5,0.1c0.1,0,0.3,0,0.4,0.1c0.2,0,0.3,0,0.5,0.1c0.1,0,0.3,0,0.4,0c0.2,0,0.3,0,0.5,0c0.1,0,0.3,0,0.4,0
			c0.2,0,0.3,0,0.5,0c0.1,0,0.3,0,0.4,0c0.2,0,0.3,0,0.5,0c0.1,0,0.3,0,0.4,0c0.2,0,0.3,0,0.5,0c0.1,0,0.3,0,0.4,0
			c0.2,0,0.3,0,0.5,0c0.1,0,0.3,0,0.4-0.1c0.2,0,0.3,0,0.4-0.1c0.1,0,0.3,0,0.4-0.1c0.1,0,0.3,0,0.4-0.1s0.3-0.1,0.4-0.1
			c0.1,0,0.3-0.1,0.4-0.1c0.1,0,0.3-0.1,0.4-0.1c0.1,0,0.3-0.1,0.4-0.1c0.1,0,0.3-0.1,0.4-0.1c0.1,0,0.3-0.1,0.4-0.1
			c0.1,0,0.3-0.1,0.4-0.2c0.1,0,0.3-0.1,0.4-0.2c0.2-0.1,0.3-0.1,0.4-0.2c0.1-0.1,0.3-0.1,0.4-0.2c0.2-0.1,0.3-0.2,0.4-0.2
			c0.1-0.1,0.3-0.1,0.4-0.2c0.2-0.1,0.3-0.2,0.4-0.3c0.1-0.1,0.2-0.1,0.3-0.2c0.2-0.1,0.3-0.2,0.5-0.3c0.1-0.1,0.2-0.1,0.3-0.2
			c0.2-0.1,0.3-0.2,0.5-0.3c0.1-0.1,0.2-0.1,0.3-0.2c0.3-0.2,0.5-0.4,0.7-0.6h0l0,0l47.1-38.8l212.5-175.3l47.1-38.8
			c0.2-0.2,0.5-0.4,0.7-0.6c0.1-0.1,0.2-0.1,0.2-0.2c0.2-0.1,0.3-0.3,0.4-0.4c0.1-0.1,0.2-0.2,0.3-0.3c0.1-0.1,0.3-0.3,0.4-0.4
			c0.1-0.1,0.2-0.2,0.3-0.3c0.1-0.1,0.2-0.3,0.3-0.4c0.1-0.1,0.2-0.2,0.3-0.3c0.1-0.1,0.2-0.3,0.3-0.4c0.1-0.1,0.2-0.2,0.2-0.3
			c0.1-0.1,0.2-0.3,0.3-0.4c0.1-0.1,0.2-0.2,0.2-0.3c0.1-0.1,0.2-0.3,0.3-0.4c0.1-0.1,0.1-0.2,0.2-0.4c0.1-0.1,0.2-0.3,0.2-0.4
			c0.1-0.1,0.1-0.3,0.2-0.4c0.1-0.1,0.1-0.3,0.2-0.4c0.1-0.1,0.1-0.3,0.2-0.4c0.1-0.1,0.1-0.3,0.2-0.4c0.1-0.1,0.1-0.3,0.2-0.4
			c0.1-0.1,0.1-0.3,0.2-0.4c0.1-0.1,0.1-0.3,0.1-0.4c0.1-0.1,0.1-0.3,0.1-0.4s0.1-0.3,0.1-0.4s0.1-0.3,0.1-0.4s0.1-0.3,0.1-0.4
			c0-0.1,0.1-0.3,0.1-0.4s0.1-0.3,0.1-0.4c0-0.1,0.1-0.3,0.1-0.4c0-0.1,0.1-0.3,0.1-0.4c0-0.1,0-0.3,0.1-0.4c0-0.1,0-0.3,0.1-0.4
			c0-0.1,0-0.3,0-0.4c0-0.1,0-0.3,0-0.4c0-0.1,0-0.3,0-0.4c0-0.1,0-0.3,0-0.4c0-0.1,0-0.3,0-0.4c0-0.1,0-0.3,0-0.4
			c0-0.1,0-0.3,0-0.4s0-0.3,0-0.4s0-0.3,0-0.4c0-0.1,0-0.3-0.1-0.4c0-0.1,0-0.3-0.1-0.4c0-0.1,0-0.3-0.1-0.4c0-0.2-0.1-0.3-0.1-0.4
			c0-0.1-0.1-0.3-0.1-0.4c0-0.1-0.1-0.3-0.1-0.5c0-0.1-0.1-0.3-0.1-0.4c0-0.2-0.1-0.3-0.1-0.5c0-0.1-0.1-0.3-0.1-0.4
			c-0.1-0.2-0.1-0.3-0.2-0.5c0-0.1-0.1-0.2-0.1-0.4c-0.1-0.2-0.1-0.3-0.2-0.5c-0.1-0.1-0.1-0.2-0.1-0.3c-0.1-0.2-0.2-0.3-0.2-0.5
			c-0.1-0.1-0.1-0.2-0.2-0.3c-0.1-0.2-0.2-0.3-0.3-0.5c-0.1-0.1-0.1-0.2-0.1-0.3c-0.1-0.2-0.2-0.4-0.3-0.6c0-0.1-0.1-0.1-0.1-0.2
			c-0.1-0.2-0.3-0.4-0.4-0.6c0,0-0.1-0.1-0.1-0.1c0,0,0,0,0-0.1c-0.2-0.2-0.3-0.5-0.5-0.7c0,0,0,0,0,0c-0.1-0.2-0.3-0.3-0.4-0.5l0,0
			L734.6,248l-52.5-63.6l-31.9-38.7C650,145.5,649.9,145.4,649.8,145.2z M722.3,263.9c-4,6.7-7.4,14.1-9.9,22.1
			c-5.1,16.6-5.6,33.2-2.3,47.8L487.9,517.2c-13.7-6-30.1-8.7-47.3-6.9c-10,1.1-19.4,3.6-27.9,7.2l-56.4-68.3
			c5.2-7.7,9.4-16.4,12.4-26c5.1-16.6,5.6-33.3,2.2-47.9l222.2-183.3c13.7,6.1,30.2,8.8,47.4,6.9c8.3-0.9,16.3-2.8,23.6-5.5
			L722.3,263.9z"/>
		<path class="st7" d="M536.1,434.2c-2.7,0-5.3-0.1-8-0.4c-21.9-2.1-41.7-12.6-55.7-29.6c-28.9-35-23.9-87,11.1-115.9
			c35-28.9,87-23.9,115.9,11.1c14,17,20.6,38.4,18.4,60.3c-2.1,21.9-12.6,41.7-29.6,55.7C573.4,427.6,555.1,434.2,536.1,434.2z
			 M535.8,272c-17.9,0-35.9,6-50.7,18.2c-16.5,13.6-26.6,32.7-28.7,54c-2,21.2,4.3,42,17.9,58.4c13.6,16.5,32.7,26.6,54,28.7
			c21.2,2,42-4.3,58.4-17.9c16.4-13.6,26.6-32.7,28.7-54c2-21.2-4.3-42-17.9-58.4l0,0C581.7,281.9,558.9,272,535.8,272z"/>
		<ellipse class="st6" cx="535.9" cy="351.8" rx="70.9" ry="70.9"/>
		<path class="st7" d="M558.8,391.6c-8.1,6.1-17,10.5-26.8,13.3l-14.6-17.7c5.9-1.3,11.8-3.3,17.8-5.8c6-2.6,10.8-5.4,14.5-8.4
			c3-2.5,4.9-4.7,5.7-6.6s0.5-3.7-0.9-5.4c-1-1.2-2.3-1.8-4-1.7c-1.7,0-4.1,0.5-7.4,1.4c-3.2,0.9-7.4,2.3-12.7,4.2
			c-5.9,2.1-11.1,3.2-15.6,3.4c-4.5,0.2-8.4-0.5-11.8-2c-3.4-1.5-6.7-4.2-9.8-8.1c-4.8-5.9-6.7-12-5.7-18.4c1-6.4,5-13.1,11.9-20.1
			l-9.8-11.8l11-9.1l9.7,11.7c7.4-5.5,16-9.6,25.7-12.4l6.2,20.4c-10.2,2.8-18.3,6.7-24.3,11.6c-2.8,2.3-4.6,4.3-5.1,6
			c-0.6,1.6-0.3,3.1,0.8,4.5c1,1.2,2.2,1.8,3.7,1.9c1.5,0.1,3.6-0.3,6.5-1s6.6-2,11.3-3.8c9.6-3.5,17.4-4.9,23.4-4.2
			s11.2,3.7,15.6,9c4.9,6,7,12.4,6.3,19.3c-0.7,6.9-4.3,13.7-10.8,20.6l11.8,14.3l-11,9.1L558.8,391.6z"/>
	</g>
	<path class="st8" d="M584.6,568.8c-0.1-2.2-2.4-3.4-4.7-3.3l-10,0.3c-1.5-6.3-3.9-11.1-7-15.8l0-0.2l6.9-7.3
		c1.5-1.6,1.5-4.2-0.2-5.8l-12.7-12c-1.6-1.5-4.2-1.5-5.7,0.1l-6.8,7.3c-5-2.9-9.4-4.9-15.7-6v0l-0.3-10c-0.1-2.2-2.1-3.8-4.4-3.7
		l-17.4,0.5c-2.2,0.1-3,1.7-3,3.9l0.3,10c-6.3,1.5-11.3,3.9-15.9,7l-0.3,0l-7.4-6.9c-1.6-1.5-4.2-1.5-5.8,0.2l-12,12.7
		c-1.5,1.6-1.5,4.2,0.1,5.7l7.3,7.2c-2.9,5-4.9,9.7-6,16.1h0l-10,0.3c-2.2,0.1-3.4,1.4-3.4,3.6l0.5,17.5c0.1,2.2,1.3,3.8,3.6,3.7
		l10-0.3c1.5,6.3,3.9,10.9,7,15.5l0,0.1l-6.9,7.3c-1.5,1.6-1.5,4.2,0.2,5.7l12.7,12c1.6,1.5,4.2,1.5,5.7-0.1l7.3-7.3
		c5,2.9,9.9,4.9,16.3,6v0l0.3,10c0.1,2.2,1,4.2,3.3,4.1l17.4-0.5c2.2-0.1,4.1-2.1,4.1-4.3l-0.3-10c6.3-1.5,10.7-3.9,15.4-7v0
		l7.3,6.9c1.6,1.5,4.2,1.5,5.7-0.2l12-12.7c1.5-1.6,1.5-4.2-0.2-5.7l-7.3-7c2.9-5,4.9-10.8,6-15.9h0.1l10-0.3c2.2-0.1,4.6-1.8,4.5-4
		L584.6,568.8z M541.8,585c-0.1,0.4-0.2,0.8-0.3,1.2c-0.2,0.6-0.4,1.2-0.6,1.8c-0.1,0.4-0.3,0.8-0.4,1.1c-0.1,0.3-0.2,0.5-0.3,0.7
		c-0.2,0.5-0.5,1-0.7,1.5c-0.2,0.4-0.4,0.7-0.6,1c-0.2,0.3-0.3,0.5-0.5,0.8c-0.2,0.2-0.3,0.5-0.5,0.7c-0.1,0.2-0.2,0.3-0.3,0.5
		c-0.2,0.3-0.5,0.6-0.7,1c-0.1,0.2-0.3,0.3-0.4,0.5c-0.3,0.3-0.5,0.6-0.8,0.9c-0.1,0.2-0.3,0.3-0.4,0.4c-0.6,0.6-1.2,1.1-1.8,1.6
		c-0.2,0.1-0.3,0.3-0.5,0.4c-0.3,0.3-0.6,0.5-1,0.7c-0.3,0.2-0.7,0.5-1,0.7c-0.2,0.1-0.3,0.2-0.5,0.3c-0.3,0.2-0.7,0.4-1.1,0.6
		c-3.4,1.8-7.3,2.9-11.4,3c-3.3,0.1-6.5-0.5-9.4-1.6c-0.3-0.1-0.5-0.2-0.8-0.3c-0.3-0.1-0.5-0.2-0.7-0.3c-0.7-0.3-1.5-0.7-2.2-1.1
		c-0.3-0.2-0.7-0.4-1-0.6c-0.3-0.2-0.7-0.4-1-0.7c-0.2-0.1-0.3-0.2-0.5-0.4c-0.9-0.7-1.8-1.5-2.6-2.3c-0.8-0.8-1.6-1.7-2.3-2.6
		c-0.3-0.4-0.6-0.8-0.8-1.1c-0.8-1.2-1.5-2.4-2.1-3.7c-1.4-3-2.2-6.3-2.3-9.8c-0.2-7.4,2.8-14.1,7.8-18.8c0.4-0.4,0.9-0.8,1.3-1.2
		c0.2-0.1,0.3-0.3,0.5-0.4c0.3-0.3,0.6-0.5,1-0.7c1-0.7,2-1.3,3.1-1.9c0.4-0.2,0.7-0.4,1.1-0.5c3-1.3,6.3-2.1,9.7-2.2
		c4.1-0.1,8,0.8,11.5,2.5c0.4,0.2,0.7,0.4,1.1,0.5c0.5,0.3,1.1,0.6,1.6,0.9c0.3,0.2,0.7,0.4,1,0.7c0.2,0.1,0.3,0.2,0.5,0.4
		c0.3,0.2,0.6,0.5,0.9,0.7c0.5,0.4,0.9,0.8,1.3,1.2c0.3,0.3,0.6,0.6,0.8,0.8c0.7,0.7,1.3,1.5,1.9,2.3c0.2,0.3,0.5,0.7,0.7,1
		c0.2,0.3,0.4,0.7,0.7,1c0.3,0.5,0.6,1,0.9,1.6c1.7,3.3,2.7,6.9,2.8,10.8C542.5,580.9,542.3,583,541.8,585z"/>
	<path class="st9" d="M510.2,649.2c-1.8,0-3.4-0.8-4.4-2.3c-0.8-1.1-1.2-2.6-1.3-4.3l-0.2-8.1c-4.7-1-9-2.6-13.4-5l-6,6
		c-1.2,1.2-2.8,2-4.5,2s-3.4-0.6-4.7-1.8l-12.7-12c-2.6-2.5-2.7-6.6-0.2-9.2l5.6-6c-2.1-3.3-4.2-7.4-5.7-12.8l-8.1,0.2
		c-3.5,0.1-6-2.4-6.1-6.1l-0.5-17.5c-0.1-3.6,2.2-6,5.8-6.1l8.1-0.2c1-4.6,2.5-8.7,5-13.2l-5.9-5.8c-2.6-2.4-2.7-6.6-0.2-9.2
		l12-12.7c1.2-1.3,2.8-2,4.6-2c1.8,0,3.4,0.6,4.7,1.8l6.1,5.7c4.3-2.6,8.6-4.5,13.3-5.8l-0.2-8.1c-0.1-4.7,2.7-6.4,5.4-6.5l17.4-0.5
		c1.7,0,3.3,0.5,4.6,1.6c1.4,1.2,2.2,2.8,2.3,4.6l0.2,8.1c4.9,1.1,8.8,2.7,12.8,5l5.5-5.8c2.5-2.6,6.6-2.7,9.2-0.2l12.7,12
		c1.3,1.2,2,2.8,2,4.6s-0.6,3.4-1.8,4.7l-5.7,6c2.7,4.3,4.5,8.5,5.8,13l8.1-0.2c1.7,0,3.3,0.4,4.5,1.2c1.7,1.1,2.6,2.7,2.7,4.5
		l0.4,17.5c0.1,3.8-3.5,6.5-6.9,6.6l-8.2,0.2c-1.2,4.7-2.9,9.2-4.9,13l5.9,5.7c1.3,1.2,2,2.8,2,4.5c0.1,1.7-0.6,3.4-1.8,4.7
		l-12,12.7c-1.2,1.3-2.8,2-4.6,2c-1.7,0-3.4-0.6-4.7-1.8l-5.9-5.6c-3.8,2.4-7.6,4.3-12.5,5.7l0.2,8.1c0,1.7-0.6,3.4-1.8,4.7
		c-1.2,1.3-2.9,2.1-4.6,2.1l-17.4,0.5C510.3,649.2,510.3,649.2,510.2,649.2z M490.1,623.4l1.6,0.9c5.3,3,9.9,4.7,15.5,5.7l2,0.3
		l0.3,12.1c0,0.7,0.2,1.3,0.4,1.6c0.1,0.1,0.1,0.2,0.3,0.2l17.4-0.5c0.4,0,0.8-0.2,1.2-0.6c0.3-0.4,0.5-0.8,0.5-1.2l-0.3-12l1.9-0.5
		c6-1.4,10.2-3.7,14.6-6.6l4.2-2.8l-0.3,3.9l6.4,6.1c0.3,0.3,0.7,0.4,1.1,0.4s0.8-0.2,1.1-0.5l12-12.7c0.3-0.3,0.4-0.7,0.4-1.1
		c0-0.4-0.2-0.8-0.5-1.1l-8.7-8.3l1-1.7c2.4-4.3,4.5-9.7,5.7-15.2l0.4-1.9l12-0.3c1,0,2.1-0.8,2.1-1.5l-0.4-17.5
		c0-0.1,0-0.3-0.4-0.5c-0.4-0.3-1.1-0.4-1.8-0.4l-12,0.3l-0.5-1.9c-1.3-5.4-3.3-9.9-6.6-15l-0.5-0.8l0.3-1.9l7.4-7.9
		c0.3-0.3,0.4-0.7,0.4-1.2c0-0.4-0.2-0.8-0.5-1.1l-12.7-12c-0.6-0.6-1.6-0.6-2.2,0l-8.1,8.7l-1.7-1c-4.9-2.8-9-4.7-14.9-5.7l-2-0.3
		l-0.3-12.1c0-0.3-0.2-0.6-0.5-0.9c-0.4-0.3-0.9-0.5-1.4-0.5l-17.4,0.5c-0.3,0-0.4,0.1-0.4,0.1c-0.1,0.1-0.2,0.5-0.2,1.3l0.3,12
		l-1.9,0.5c-5.6,1.3-10.2,3.4-15.2,6.6l-0.7,0.5l-2-0.2l-8-7.5c-0.3-0.3-0.7-0.5-1.2-0.4c-0.4,0-0.8,0.2-1.1,0.5l-12,12.7
		c-0.3,0.3-0.4,0.7-0.4,1.1c0,0.4,0.2,0.8,0.5,1.1l8.7,8.5l-1,1.7c-3.1,5.4-4.8,9.8-5.7,15.3l-0.3,2l-12.1,0.3c-0.8,0-1,0.1-1,1.1
		l0.5,17.5c0,1.3,0.6,1.3,1,1.3l12-0.3l0.5,1.9c1.3,5.3,3.2,9.6,6.6,14.8l0.7,1l-0.6,1.7l-7.3,7.7c-0.6,0.6-0.6,1.6,0,2.2l12.7,12
		c0.3,0.3,0.7,0.4,1.1,0.4c0.4,0,0.8-0.2,1.1-0.5l0.1,0L490.1,623.4z M517.3,607c-3.3,0-6.5-0.6-9.6-1.7c-0.3-0.1-0.6-0.2-0.9-0.3
		c-0.3-0.1-0.5-0.2-0.8-0.3c-0.8-0.4-1.6-0.8-2.4-1.2c-0.4-0.2-0.8-0.5-1.1-0.7s-0.7-0.5-1.1-0.7c-0.2-0.1-0.4-0.3-0.5-0.4
		c-1-0.8-2-1.6-2.9-2.5c-0.9-0.9-1.8-1.9-2.5-2.9c-0.3-0.4-0.6-0.8-0.9-1.2c-0.9-1.3-1.6-2.6-2.3-4c-1.6-3.4-2.4-7-2.5-10.8
		c-0.2-7.8,2.9-15.3,8.5-20.7c0.5-0.5,1-0.9,1.5-1.3c0.2-0.1,0.3-0.3,0.5-0.4c0.3-0.3,0.7-0.5,1.1-0.8c1.1-0.8,2.2-1.5,3.4-2.1
		c0.4-0.2,0.8-0.4,1.2-0.6c3.4-1.5,7-2.3,10.7-2.4c4.4-0.1,8.7,0.8,12.6,2.7c0.4,0.2,0.8,0.4,1.2,0.6c0.6,0.3,1.2,0.7,1.7,1
		c0.4,0.2,0.7,0.5,1.1,0.7c0.2,0.1,0.4,0.3,0.5,0.4c0.3,0.3,0.7,0.5,1,0.8c0.5,0.4,1,0.9,1.5,1.3c0.3,0.3,0.6,0.6,0.9,0.9
		c0.8,0.8,1.5,1.7,2.1,2.5c0.3,0.3,0.5,0.7,0.8,1.1s0.5,0.7,0.7,1.1c0.3,0.6,0.7,1.2,1,1.8c1.9,3.7,2.9,7.7,3,11.9
		c0.1,2.3-0.2,4.7-0.7,6.9l0,0c-0.1,0.4-0.2,0.9-0.3,1.3c-0.2,0.7-0.4,1.3-0.6,1.9c-0.2,0.4-0.3,0.8-0.5,1.3
		c-0.1,0.3-0.2,0.5-0.4,0.8c-0.3,0.6-0.5,1.1-0.8,1.6c-0.2,0.4-0.4,0.8-0.7,1.2c-0.2,0.3-0.4,0.6-0.6,0.9c-0.2,0.3-0.3,0.5-0.5,0.8
		c-0.1,0.2-0.3,0.4-0.4,0.5c-0.3,0.4-0.5,0.7-0.8,1c-0.1,0.2-0.3,0.3-0.4,0.5c-0.3,0.3-0.6,0.7-0.9,1c-0.2,0.2-0.3,0.3-0.5,0.5
		c-0.6,0.6-1.3,1.2-2,1.8c-0.2,0.1-0.3,0.3-0.5,0.4c-0.3,0.3-0.7,0.5-1.1,0.8c-0.4,0.3-0.7,0.5-1.1,0.8c-0.2,0.1-0.4,0.2-0.6,0.3
		c-0.4,0.2-0.8,0.5-1.2,0.7c-3.9,2.1-8.1,3.2-12.5,3.3C517.8,607,517.5,607,517.3,607z M517.3,556.7c-0.2,0-0.4,0-0.6,0
		c-3.1,0.1-6,0.8-8.8,2c-0.3,0.2-0.7,0.3-1,0.5c-1,0.5-1.9,1.1-2.8,1.7c-0.3,0.2-0.6,0.4-0.9,0.7c-0.1,0.1-0.3,0.2-0.4,0.3
		c-0.4,0.3-0.8,0.7-1.2,1.1c-4.6,4.4-7.2,10.6-7,17c0.1,3.1,0.8,6.1,2.1,8.9c0.5,1.2,1.2,2.3,1.9,3.3c0.2,0.3,0.5,0.7,0.7,1
		c0.6,0.8,1.3,1.6,2.1,2.4c0.7,0.7,1.6,1.4,2.4,2c0.2,0.1,0.3,0.2,0.4,0.3c0.3,0.2,0.6,0.4,0.9,0.6c0.3,0.2,0.6,0.4,0.9,0.6
		c0.6,0.4,1.3,0.7,1.9,1c0.2,0.1,0.4,0.2,0.7,0.3c0.2,0.1,0.5,0.2,0.7,0.3c2.7,1,5.6,1.5,8.5,1.4c3.6-0.1,7.1-1,10.3-2.7
		c0.3-0.2,0.6-0.4,0.9-0.5c0.2-0.1,0.3-0.2,0.5-0.3c0.3-0.2,0.6-0.4,0.9-0.6c0.3-0.2,0.6-0.4,0.9-0.7c0.1-0.1,0.3-0.2,0.4-0.3
		c0.6-0.5,1.1-1,1.6-1.5c0.1-0.1,0.3-0.3,0.4-0.4c0.3-0.3,0.5-0.5,0.7-0.8c0.1-0.1,0.2-0.3,0.3-0.4c0.2-0.3,0.4-0.6,0.7-0.9
		c0.1-0.1,0.2-0.3,0.3-0.4c0.2-0.2,0.3-0.4,0.4-0.6c0.2-0.2,0.3-0.5,0.5-0.7c0.2-0.3,0.4-0.6,0.5-1c0.2-0.4,0.4-0.8,0.7-1.3
		c0.1-0.2,0.2-0.4,0.3-0.7c0.1-0.3,0.3-0.7,0.4-1c0.2-0.5,0.4-1,0.5-1.6c0.1-0.4,0.2-0.7,0.3-1.1l0,0c0.4-1.8,0.6-3.8,0.6-5.7
		c-0.1-3.4-0.9-6.7-2.5-9.8c-0.3-0.5-0.5-1-0.8-1.4c-0.2-0.3-0.4-0.6-0.6-0.9s-0.4-0.6-0.6-0.9c-0.5-0.7-1.1-1.4-1.8-2.1
		c-0.3-0.3-0.5-0.5-0.8-0.8c-0.4-0.4-0.8-0.7-1.2-1.1c-0.3-0.2-0.6-0.5-0.9-0.7c-0.2-0.1-0.3-0.2-0.4-0.3c-0.3-0.2-0.6-0.4-0.9-0.6
		c-0.5-0.3-0.9-0.6-1.4-0.8c-0.3-0.2-0.7-0.3-1-0.5C524,557.5,520.8,556.7,517.3,556.7z"/>
	<path class="st8" d="M587.8,464.2c0-1-1.1-1.5-2.1-1.5l-4.6,0.1c-0.7-2.9-1.8-5-3.2-7.2l0-0.1l3.1-3.3c0.7-0.7,0.7-1.9-0.1-2.6
		l-5.8-5.5c-0.7-0.7-1.9-0.7-2.6,0.1l-3.2,3.3c-2.3-1.3-5.3-2.2-7.3-2.7v0v-4.6c0-1-0.9-1.7-1.9-1.7l-7.9,0.2c-1,0-1.4,0.8-1.3,1.8
		l0.1,4.6c-2.9,0.7-5.1,1.8-7.2,3.2l-0.1,0l-3.4-3.1c-0.7-0.7-1.9-0.7-2.6,0.1l-5.5,5.8c-0.7,0.7-0.7,1.9,0.1,2.6l3.3,3.3
		c-1.3,2.3-2.2,4.4-2.7,7.4h0l-4.6,0c-1,0-1.6,0.6-1.5,1.6l0.2,7.9c0,1,0.6,1.7,1.6,1.7l4.6-0.1c0.7,2.9,1.8,4.9,3.2,7.1l0,0
		l-3.1,3.3c-0.7,0.7-0.7,1.9,0.1,2.6l5.8,5.5c0.7,0.7,1.9,0.7,2.6-0.1l3.2-3.3c2.3,1.3,4.3,2.2,7.3,2.7v0l0.2,4.6
		c0,1,0.5,1.9,1.5,1.9l7.9-0.2c1,0,1.9-1,1.9-2l-0.3-4.6c2.9-0.7,4.8-1.8,6.8-3.2v0l3.5,3.1c0.7,0.7,2,0.7,2.7-0.1l5.5-5.8
		c0.7-0.7,0.7-1.9,0-2.6l-3.3-3.1c1.3-2.3,2.2-5.2,2.7-7.2h0l4.6-0.2c1,0,2.1-0.8,2-1.9L587.8,464.2z M568.4,471.6
		c0,0.2-0.1,0.4-0.1,0.5c-0.1,0.3-0.2,0.5-0.3,0.8c-0.1,0.2-0.1,0.3-0.2,0.5c-0.1,0.1-0.1,0.2-0.2,0.3c-0.1,0.2-0.2,0.4-0.3,0.7
		c-0.1,0.2-0.2,0.3-0.3,0.5c-0.1,0.1-0.2,0.3-0.2,0.4c-0.1,0.1-0.1,0.2-0.2,0.3c-0.1,0.1-0.1,0.2-0.2,0.2c-0.1,0.2-0.2,0.3-0.3,0.4
		c-0.1,0.1-0.1,0.1-0.2,0.2c-0.1,0.1-0.2,0.3-0.4,0.4c-0.1,0.1-0.1,0.1-0.2,0.2c-0.3,0.3-0.5,0.5-0.8,0.7c-0.1,0.1-0.1,0.1-0.2,0.2
		c-0.1,0.1-0.3,0.2-0.4,0.3s-0.3,0.2-0.5,0.3c-0.1,0-0.2,0.1-0.2,0.2c-0.2,0.1-0.3,0.2-0.5,0.3c-1.5,0.8-3.3,1.3-5.2,1.4
		c-1.5,0-2.9-0.2-4.3-0.7c-0.1,0-0.2-0.1-0.4-0.1c-0.1,0-0.2-0.1-0.3-0.1c-0.3-0.2-0.7-0.3-1-0.5c-0.2-0.1-0.3-0.2-0.5-0.3
		s-0.3-0.2-0.5-0.3c-0.1,0-0.2-0.1-0.2-0.2c-0.4-0.3-0.8-0.7-1.2-1c-0.4-0.4-0.7-0.8-1.1-1.2c-0.1-0.2-0.3-0.3-0.4-0.5
		c-0.4-0.5-0.7-1.1-0.9-1.7c-0.6-1.4-1-2.9-1-4.5c-0.1-3.3,1.3-6.4,3.5-8.5c0.2-0.2,0.4-0.4,0.6-0.5c0.1-0.1,0.1-0.1,0.2-0.2
		c0.1-0.1,0.3-0.2,0.4-0.3c0.4-0.3,0.9-0.6,1.4-0.9c0.2-0.1,0.3-0.2,0.5-0.2c1.3-0.6,2.8-1,4.4-1c1.9,0,3.7,0.4,5.2,1.1
		c0.2,0.1,0.3,0.2,0.5,0.3c0.2,0.1,0.5,0.3,0.7,0.4c0.2,0.1,0.3,0.2,0.5,0.3c0.1,0,0.2,0.1,0.2,0.2c0.2,0.1,0.3,0.2,0.4,0.3
		c0.2,0.2,0.4,0.4,0.6,0.5c0.1,0.1,0.3,0.3,0.4,0.4c0.3,0.3,0.6,0.7,0.9,1c0.1,0.2,0.2,0.3,0.3,0.5s0.2,0.3,0.3,0.5
		c0.1,0.2,0.3,0.5,0.4,0.7c0.8,1.5,1.2,3.2,1.3,4.9C568.7,469.7,568.6,470.7,568.4,471.6z"/>
	<path class="st9" d="M554,500.7c-0.8,0-1.5-0.4-2-1c-0.3-0.5-0.6-1.2-0.6-1.9l-0.1-3.7c-2.1-0.5-4.1-1.2-6.1-2.3l-2.7,2.7
		c-0.5,0.6-1.3,0.9-2.1,0.9c-0.8,0-1.5-0.3-2.1-0.8l-5.8-5.5c-1.2-1.1-1.2-3-0.1-4.2l2.6-2.7c-0.9-1.5-1.9-3.4-2.6-5.8l-3.7,0.1
		c-1.6,0-2.7-1.1-2.8-2.8l-0.2-7.9c0-1.7,1-2.8,2.6-2.8l3.7-0.1c0.4-2.1,1.2-4,2.3-6l-2.7-2.7c-1.2-1.1-1.2-3-0.1-4.2l5.5-5.8
		c0.5-0.6,1.3-0.9,2.1-0.9c0.8,0,1.6,0.3,2.1,0.8l2.8,2.6c1.9-1.2,3.9-2,6-2.7l-0.1-3.7c-0.1-2.1,1.2-2.9,2.4-2.9l7.9-0.2
		c0.8,0,1.5,0.2,2.1,0.7c0.7,0.5,1,1.3,1,2.1l0.1,3.7c2.2,0.5,4,1.2,5.8,2.3l2.5-2.7c1.1-1.2,3-1.2,4.2-0.1l5.8,5.5
		c0.6,0.5,0.9,1.3,0.9,2.1s-0.3,1.5-0.8,2.1l-2.6,2.7c1.2,2,2.1,3.8,2.6,5.9l3.7-0.1c0.8,0,1.5,0.2,2.1,0.5c0.8,0.5,1.2,1.2,1.2,2.1
		l0.2,7.9c0,1.7-1.6,2.9-3.1,3l-3.7,0.1c-0.5,2.1-1.3,4.2-2.2,5.9l2.7,2.6c0.6,0.5,0.9,1.3,0.9,2.1s-0.3,1.5-0.8,2.1l-5.5,5.8
		c-0.5,0.6-1.3,0.9-2.1,0.9c-0.8,0-1.5-0.3-2.1-0.8l-2.7-2.5c-1.7,1.1-3.5,2-5.7,2.6l0.1,3.7c0,0.8-0.3,1.6-0.8,2.2
		c-0.6,0.6-1.3,1-2.1,1L554,500.7C554.1,500.7,554,500.7,554,500.7z M544.9,489l0.7,0.4c2.4,1.4,4.5,2.2,7,2.6l0.9,0.2l0.1,5.5
		c0,0.3,0.1,0.6,0.2,0.7c0,0,0.1,0.1,0.2,0.1l7.9-0.2c0.2,0,0.4-0.1,0.5-0.3c0.2-0.2,0.2-0.4,0.2-0.6l-0.1-5.5l0.9-0.2
		c2.7-0.7,4.6-1.7,6.6-3l1.9-1.3l-0.1,1.8l2.9,2.8c0.1,0.1,0.3,0.2,0.5,0.2c0.2,0,0.4-0.1,0.5-0.2l5.5-5.8c0.1-0.1,0.2-0.3,0.2-0.5
		s-0.1-0.4-0.2-0.5l-3.9-3.8l0.4-0.8c1.1-1.9,2-4.4,2.6-6.9l0.2-0.8l5.4-0.1c0.5,0,0.9-0.4,0.9-0.7l-0.2-7.9c0,0,0-0.1-0.2-0.2
		c-0.2-0.1-0.5-0.2-0.8-0.2l-5.5,0.1l-0.2-0.9c-0.6-2.5-1.5-4.5-3-6.8l-0.2-0.4l0.1-0.9l3.4-3.6c0.1-0.1,0.2-0.3,0.2-0.5
		c0-0.2-0.1-0.4-0.2-0.5l-5.8-5.5c-0.3-0.3-0.7-0.3-1,0l-3.7,4l-0.8-0.4c-2.2-1.3-4.1-2.1-6.8-2.6l-0.9-0.2l-0.1-5.5
		c0-0.2-0.1-0.3-0.2-0.4c-0.2-0.1-0.4-0.2-0.6-0.2l-7.9,0.2c-0.1,0-0.2,0-0.2,0c0,0-0.1,0.2-0.1,0.6l0.1,5.5l-0.9,0.2
		c-2.5,0.6-4.7,1.5-6.9,3l-0.3,0.2l-0.9-0.1l-3.6-3.4c-0.1-0.1-0.3-0.2-0.5-0.2c-0.2,0-0.4,0.1-0.5,0.2l-5.5,5.8
		c-0.1,0.1-0.2,0.3-0.2,0.5s0.1,0.4,0.2,0.5l3.9,3.9l-0.4,0.8c-1.4,2.5-2.2,4.5-2.6,7l-0.2,0.9l-5.5,0.1c-0.4,0-0.4,0.1-0.4,0.5
		l0.2,7.9c0,0.6,0.3,0.6,0.5,0.6l5.5-0.1l0.2,0.9c0.6,2.4,1.4,4.3,3,6.7l0.3,0.5l-0.3,0.8l-3.3,3.5c-0.3,0.3-0.3,0.7,0,1l5.8,5.5
		c0.1,0.1,0.3,0.2,0.5,0.2c0.2,0,0.4-0.1,0.5-0.2l0,0L544.9,489z M557.2,481.6c-1.5,0-3-0.3-4.4-0.8c-0.1,0-0.3-0.1-0.4-0.2
		c-0.1,0-0.3-0.1-0.4-0.2c-0.4-0.2-0.7-0.3-1.1-0.5c-0.2-0.1-0.3-0.2-0.5-0.3s-0.3-0.2-0.5-0.3c-0.1-0.1-0.2-0.1-0.2-0.2
		c-0.5-0.3-0.9-0.7-1.3-1.1c-0.4-0.4-0.8-0.8-1.2-1.3c-0.1-0.2-0.3-0.4-0.4-0.6c-0.4-0.6-0.7-1.2-1-1.8c-0.7-1.5-1.1-3.2-1.1-4.9
		c-0.1-3.5,1.3-7,3.9-9.4c0.2-0.2,0.4-0.4,0.7-0.6c0.1-0.1,0.2-0.1,0.2-0.2c0.2-0.1,0.3-0.3,0.5-0.4c0.5-0.3,1-0.7,1.6-1
		c0.2-0.1,0.4-0.2,0.6-0.3c1.5-0.7,3.2-1.1,4.8-1.1c2,0,4,0.4,5.7,1.2c0.2,0.1,0.4,0.2,0.5,0.3c0.3,0.1,0.5,0.3,0.8,0.5
		c0.2,0.1,0.3,0.2,0.5,0.3c0.1,0.1,0.2,0.1,0.2,0.2c0.2,0.1,0.3,0.2,0.5,0.4c0.2,0.2,0.5,0.4,0.7,0.6c0.2,0.1,0.3,0.3,0.4,0.4
		c0.3,0.4,0.7,0.8,1,1.2c0.1,0.2,0.2,0.3,0.3,0.5s0.2,0.3,0.3,0.5c0.2,0.3,0.3,0.5,0.4,0.8c0.9,1.7,1.3,3.5,1.4,5.4
		c0,1.1-0.1,2.1-0.3,3.1l0,0c-0.1,0.2-0.1,0.4-0.2,0.6c-0.1,0.3-0.2,0.6-0.3,0.9c-0.1,0.2-0.1,0.4-0.2,0.6c-0.1,0.1-0.1,0.3-0.2,0.4
		c-0.1,0.3-0.2,0.5-0.4,0.7c-0.1,0.2-0.2,0.3-0.3,0.5c-0.1,0.1-0.2,0.3-0.3,0.4c-0.1,0.1-0.2,0.2-0.2,0.3c-0.1,0.1-0.1,0.2-0.2,0.2
		c-0.1,0.2-0.2,0.3-0.4,0.5c-0.1,0.1-0.1,0.2-0.2,0.2c-0.1,0.2-0.3,0.3-0.4,0.5c-0.1,0.1-0.1,0.1-0.2,0.2c-0.3,0.3-0.6,0.6-0.9,0.8
		c-0.1,0.1-0.2,0.1-0.2,0.2c-0.2,0.1-0.3,0.2-0.5,0.4s-0.3,0.2-0.5,0.3c-0.1,0-0.2,0.1-0.3,0.2c-0.2,0.1-0.3,0.2-0.5,0.3
		c-1.8,1-3.7,1.5-5.7,1.5C557.5,481.6,557.3,481.6,557.2,481.6z M557.3,458.7c-0.1,0-0.2,0-0.3,0c-1.4,0-2.7,0.3-4,0.9
		c-0.2,0.1-0.3,0.1-0.4,0.2c-0.4,0.2-0.9,0.5-1.3,0.8c-0.1,0.1-0.3,0.2-0.4,0.3c-0.1,0-0.1,0.1-0.2,0.2c-0.2,0.2-0.4,0.3-0.6,0.5
		c-2.1,2-3.3,4.8-3.2,7.7c0,1.4,0.3,2.8,0.9,4c0.2,0.5,0.5,1,0.8,1.5c0.1,0.2,0.2,0.3,0.3,0.5c0.3,0.4,0.6,0.7,0.9,1.1
		s0.7,0.7,1.1,0.9c0.1,0,0.1,0.1,0.2,0.2c0.1,0.1,0.3,0.2,0.4,0.3s0.3,0.2,0.4,0.3c0.3,0.2,0.6,0.3,0.9,0.5c0.1,0,0.2,0.1,0.3,0.1
		c0.1,0,0.2,0.1,0.3,0.1c1.2,0.5,2.5,0.7,3.9,0.6c1.7,0,3.2-0.5,4.7-1.3c0.2-0.1,0.3-0.2,0.4-0.3c0.1,0,0.1-0.1,0.2-0.1
		c0.1-0.1,0.3-0.2,0.4-0.3c0.1-0.1,0.3-0.2,0.4-0.3c0.1,0,0.1-0.1,0.2-0.2c0.3-0.2,0.5-0.4,0.7-0.7c0.1-0.1,0.1-0.1,0.2-0.2
		c0.1-0.1,0.2-0.2,0.3-0.4c0.1-0.1,0.1-0.1,0.2-0.2c0.1-0.1,0.2-0.3,0.3-0.4c0.1-0.1,0.1-0.1,0.2-0.2c0.1-0.1,0.1-0.2,0.2-0.3
		c0.1-0.1,0.1-0.2,0.2-0.3c0.1-0.1,0.2-0.3,0.3-0.4c0.1-0.2,0.2-0.4,0.3-0.6c0.1-0.1,0.1-0.2,0.1-0.3c0.1-0.2,0.1-0.3,0.2-0.5
		c0.1-0.2,0.2-0.5,0.2-0.7c0.1-0.2,0.1-0.3,0.1-0.5l0,0c0.2-0.8,0.3-1.7,0.3-2.6c0-1.6-0.4-3.1-1.1-4.4c-0.1-0.2-0.2-0.4-0.4-0.7
		c-0.1-0.1-0.2-0.3-0.3-0.4c-0.1-0.1-0.2-0.3-0.3-0.4c-0.3-0.3-0.5-0.7-0.8-0.9c-0.1-0.1-0.2-0.2-0.3-0.3c-0.2-0.2-0.4-0.3-0.6-0.5
		c-0.1-0.1-0.3-0.2-0.4-0.3c-0.1,0-0.1-0.1-0.2-0.2c-0.1-0.1-0.3-0.2-0.4-0.3c-0.2-0.1-0.4-0.3-0.6-0.4c-0.2-0.1-0.3-0.2-0.4-0.2
		C560.3,459.1,558.8,458.7,557.3,458.7z"/>
	<g>
		<path class="st10" d="M482.8,642.9c0,22.7-19.6,41.2-43.7,41.2H261.6c-24.1,0-43.7-18.4-43.7-41.2v-431
			c0-22.7,19.6-41.2,43.7-41.2h177.5c24.1,0,43.7,18.4,43.7,41.2V642.9z"/>
		<path class="st11" d="M382.6,198.8c0,3.5-2.5,6.3-5.6,6.3h-54.9c-3.1,0-5.6-2.8-5.6-6.3l0,0c0-3.5,2.5-6.3,5.6-6.3H377
			C380.1,192.5,382.6,195.3,382.6,198.8L382.6,198.8z"/>
		<path class="st11" d="M448.1,198.6c0,4-3.3,7.3-7.4,7.3s-7.4-3.3-7.4-7.3s3.3-7.3,7.4-7.3C444.8,191.3,448.1,194.5,448.1,198.6z"
			/>
		<path class="st11" d="M418.5,198.4c0.1,2.2-1.7,4-4,4.1c-2.2,0.1-4.1-1.7-4.2-3.9s1.7-4,3.9-4.1
			C416.6,194.5,418.4,196.2,418.5,198.4z"/>
		<path class="st11" d="M407.1,198.3c0.1,2.2-1.7,4-4,4.1c-2.2,0.1-4.1-1.7-4.2-3.9s1.7-4,3.9-4.1
			C405.1,194.4,407,196.1,407.1,198.3z"/>
		<rect x="228.9" y="221.9" class="st11" width="242.9" height="403.7"/>
		<path class="st11" d="M378.6,664.9h-56.5c-4.3,0-7.9-3.5-7.9-7.9v-7.5c0-4.3,3.5-7.9,7.9-7.9h56.5c4.3,0,7.9,3.5,7.9,7.9v7.5
			C386.5,661.3,383,664.9,378.6,664.9z"/>
		<path class="st9" d="M322.4,664.2c-4.3,0-8.2-3.5-8.2-7.8v-7.5c0-4.3,3.8-7.6,8.2-7.6h27.8v-16h-121v-404h121v-17h-27.8
			c-3.1,0-5.6-2.5-5.6-6s2.5-6,5.6-6h27.8v-22h-88.3c-24.1,0-43.7,18.3-43.7,41v431c0,22.7,19.6,40.9,43.7,40.9h88.3v-19H322.4z"/>
		<path class="st12" d="M316.9,198.2c0,3.5,2.5,6,5.6,6h27.8v-12h-27.8C319.4,192.2,316.9,194.7,316.9,198.2z"/>
		<rect x="229.3" y="221.2" class="st12" width="121" height="404"/>
		<path class="st12" d="M314.3,648.9v7.5c0,4.3,3.8,7.8,8.2,7.8h27.8v-23h-27.8C318.1,641.2,314.3,644.5,314.3,648.9z"/>
	</g>
	<g>
		<path class="st10" d="M613.7,515.2c0,10.2-6.5,15.5-13.5,15.5c-7.4,0-13.3-5.6-13.3-14.7c0-8.7,5.3-15.3,13.7-15.3
			C609,500.7,613.7,506.9,613.7,515.2z M595.4,515.8c0,5.1,1.7,8.8,5,8.8c3.2,0,4.8-3.3,4.8-8.8c0-5-1.3-8.8-4.9-8.8
			C597,507,595.4,510.9,595.4,515.8z M600.8,551.2l28-50.5h6.2l-28.1,50.5H600.8z M648.9,535.5c0,10.2-6.5,15.5-13.5,15.5
			c-7.4,0-13.2-5.6-13.3-14.7c0-8.7,5.3-15.3,13.7-15.3C644.2,521,648.9,527.2,648.9,535.5z M630.6,536c-0.1,5.1,1.7,8.8,5,8.8
			c3.2,0,4.8-3.3,4.8-8.8c0-5-1.3-8.8-4.8-8.8C632.1,527.3,630.6,531.2,630.6,536z"/>
	</g>
	<g>
		<path class="st10" d="M181.4,465.4c0,6.5-4.1,9.9-8.6,9.9c-4.7,0-8.4-3.5-8.4-9.3c0-5.5,3.4-9.7,8.7-9.7
			C178.4,456.2,181.4,460.1,181.4,465.4z M169.7,465.7c0,3.2,1.1,5.6,3.2,5.6c2,0,3-2.1,3-5.6c0-3.1-0.9-5.6-3.1-5.6
			C170.7,460.1,169.7,462.6,169.7,465.7z M173.2,488.2l17.8-32h3.9l-17.8,32H173.2z M203.7,478.3c0,6.5-4.1,9.9-8.6,9.9
			c-4.7,0-8.4-3.5-8.4-9.3c0-5.5,3.4-9.7,8.7-9.7C200.7,469.1,203.7,473,203.7,478.3z M192.1,478.6c0,3.2,1,5.6,3.1,5.6
			c2,0,3-2.1,3-5.6c0-3.1-0.8-5.6-3-5.6C193,473,192.1,475.5,192.1,478.6z"/>
	</g>
	<g>
		<path class="st0" d="M424.5,515.5c0,2.5-2,4.5-4.4,4.5H278.6c-2.4,0-4.4-2-4.4-4.5V361c0-2.5,2-4.5,4.4-4.5H420
			c2.4,0,4.4,2,4.4,4.5V515.5z"/>
		<g>
			<path class="st8" d="M315.6,433.8h-31.2c-0.6,0-1.1,0.3-1.1,0.6v34.3c0,0.3,0.5,0.6,1.1,0.6h31.2c0.6,0,1.1-0.3,1.1-0.6v-34.3
				C316.7,434.1,316.2,433.8,315.6,433.8z M314,465.9c0,0.3-0.4,0.5-0.9,0.5h-26.1c-0.5,0-0.9-0.2-0.9-0.5v-28.7
				c0-0.3,0.4-0.5,0.9-0.5H313c0.5,0,0.9,0.2,0.9,0.5V465.9z"/>
		</g>
		<g>
			<path class="st8" d="M415,433.6h-31.2c-0.6,0-1.1,0.3-1.1,0.6v34.3c0,0.3,0.5,0.6,1.1,0.6H415c0.6,0,1.1-0.3,1.1-0.6v-34.3
				C416.1,433.9,415.6,433.6,415,433.6z M413.4,465.7c0,0.3-0.4,0.5-0.9,0.5h-26.1c-0.5,0-0.9-0.2-0.9-0.5V437
				c0-0.3,0.4-0.5,0.9-0.5h26.1c0.5,0,0.9,0.2,0.9,0.5V465.7z"/>
		</g>
		<path class="st8" d="M430,519.9c0,1.6-1.3,3-3,3H271.9c-1.6,0-3-1.3-3-3v-10.7c0-1.6,1.3-3,3-3h155.2c1.6,0,3,1.3,3,3L430,519.9
			L430,519.9z"/>
		<path class="st3" d="M263.7,415.2c0,3.6-2.9,6.8-6.6,6.8s-6.8-3.1-6.8-6.8c2.8-2.7,4.8-3.8,8.5-3.8
			C262.6,411.4,264.2,411.7,263.7,415.2z"/>
		<path class="st13" d="M277.1,415.2c0,3.6-2.9,6.8-6.5,6.8c-3.7,0-6.8-3.1-6.8-6.8c0-3.6,3-6.4,6.7-6.4
			C274.1,408.8,277.6,411.7,277.1,415.2z"/>
		<path class="st3" d="M290.4,415.2c0,3.6-2.8,6.8-6.5,6.8s-6.8-3.1-6.8-6.8c0-3.6,3-6.4,6.7-6.4
			C287.4,408.8,290.3,411.6,290.4,415.2z"/>
		<path class="st13" d="M303.7,415.2c0.1,3.6-2.9,6.6-6.6,6.6c-3.7,0-6.7-3-6.8-6.6c0-3.6,2.9-6.6,6.6-6.6
			C300.6,408.6,303.6,411.6,303.7,415.2z"/>
		<path class="st3" d="M317.1,415.4c0.1,3.6-2.8,6.6-6.5,6.6c-3.7,0-6.7-3-6.8-6.6c-0.1-3.6,2.9-6.6,6.5-6.6
			C314,408.8,317,411.8,317.1,415.4z"/>
		<path class="st13" d="M330.4,415.4c0.1,3.6-2.8,6.6-6.5,6.6s-6.7-3-6.8-6.6c-0.1-3.6,2.8-6.6,6.5-6.6
			C327.3,408.8,330.3,411.8,330.4,415.4z"/>
		<path class="st3" d="M343.7,415.4c0.1,3.6-2.8,6.6-6.5,6.6s-6.7-3-6.8-6.6c-0.1-3.6,2.8-6.6,6.5-6.6
			C340.5,408.8,343.6,411.8,343.7,415.4z"/>
		<path class="st13" d="M357,415.4c0.1,3.6-2.8,6.6-6.5,6.6c-3.7,0-6.8-3-6.8-6.6c-0.1-3.6,2.8-6.6,6.5-6.6
			C353.8,408.8,356.9,411.8,357,415.4z"/>
		<path class="st3" d="M370.3,415.4c0.1,3.6-2.8,6.6-6.4,6.6s-6.8-3-6.9-6.6c-0.1-3.6,2.8-6.6,6.4-6.6
			C367.1,408.8,370.2,411.8,370.3,415.4z"/>
		<path class="st13" d="M383.6,415.4c0.1,3.6-2.7,6.6-6.4,6.6c-3.7,0-6.8-3-6.9-6.6c-0.1-3.6,2.7-6.6,6.4-6.6
			C380.4,408.8,383.5,411.8,383.6,415.4z"/>
		<path class="st3" d="M396.9,415.4c0.2,3.6-2.7,6.6-6.4,6.6s-6.8-3-6.9-6.6c-0.1-3.6,2.7-6.6,6.4-6.6
			C393.7,408.8,396.8,411.8,396.9,415.4z"/>
		<path class="st13" d="M410.2,415.4c0.2,3.6-2.7,6.6-6.3,6.6s-6.8-3-7-6.6c-0.2-3.6,2.7-6.6,6.3-6.6
			C406.9,408.8,410,411.8,410.2,415.4z"/>
		<path class="st3" d="M423.5,415.4c0.2,3.6-2.6,6.6-6.3,6.6s-6.8-3-7-6.6c-0.2-3.6,2.7-6.6,6.3-6.6
			C420.2,408.8,423.3,411.7,423.5,415.4z"/>
		<path class="st13" d="M436.8,415.4c0.2,3.6-2.6,6.6-6.3,6.6c-3.7,0-6.8-3-7-6.6s2.6-6.6,6.3-6.6
			C433.5,408.8,436.6,411.7,436.8,415.4z"/>
		<path class="st3" d="M450.1,415.2c0.2,3.6-2.6,6.8-6.3,6.8c-3.7,0-6.8-3-7-6.6c-0.2-3.6,2.6-6.6,6.3-6.6
			C445.1,409.7,445.8,412.5,450.1,415.2z"/>
		<polygon class="st3" points="263.7,415.2 250.4,415.2 273.8,376.5 283.8,376.5 		"/>
		<polygon class="st14" points="277.1,415.2 263.7,415.2 283.8,376.5 293.9,376.5 		"/>
		<polygon class="st3" points="290.6,415.2 277.1,415.2 293.9,376.6 303.9,376.6 		"/>
		<polygon class="st14" points="303.7,415.3 290.3,415.3 303.9,376.6 314,376.6 		"/>
		<polygon class="st3" points="317.1,415.3 303.7,415.3 314,376.6 324.2,376.6 		"/>
		<polygon class="st14" points="330.4,415.3 317.1,415.3 324,376.6 334.1,376.6 		"/>
		<polygon class="st14" points="356.9,415.3 343.7,415.3 344.1,376.6 354.2,376.6 		"/>
		<polygon class="st3" points="370.3,415.2 357,415.2 354.2,376.6 364.3,376.6 		"/>
		<polygon class="st14" points="383.6,415.2 370.3,415.2 364.2,376.5 374.3,376.5 		"/>
		<polygon class="st3" points="396.9,415.2 383.6,415.2 374.3,376.5 384.3,376.5 		"/>
		<polygon class="st14" points="410.2,415.2 396.9,415.2 384.3,376.5 394.3,376.5 		"/>
		<polygon class="st3" points="423.5,415.2 410.2,415.2 394.3,376.5 404.4,376.5 		"/>
		<polygon class="st14" points="436.8,415.2 423.5,415.2 404.4,376.5 414.4,376.5 		"/>
		<polygon class="st3" points="450.1,415.2 436.8,415.2 414.4,376.5 424.5,376.5 		"/>
		<rect x="273.8" y="372.4" class="st3" width="10" height="4.2"/>
		<rect x="283.8" y="372.4" class="st13" width="10.1" height="4.2"/>
		<rect x="293.9" y="372.4" class="st3" width="10.1" height="4.2"/>
		<rect x="303.9" y="372.4" class="st13" width="10.1" height="4.2"/>
		<rect x="314" y="372.4" class="st3" width="10.1" height="4.2"/>
		<rect x="324" y="372.4" class="st13" width="10.1" height="4.2"/>
		<rect x="334.1" y="372.4" class="st3" width="10.1" height="4.2"/>
		<rect x="344.1" y="372.4" class="st13" width="10.1" height="4.2"/>
		<rect x="354.2" y="372.4" class="st3" width="10.1" height="4.2"/>
		<rect x="364.3" y="372.4" class="st13" width="10.1" height="4.2"/>
		<rect x="374.3" y="372.4" class="st3" width="10.1" height="4.2"/>
		<rect x="384.4" y="372.4" class="st13" width="10.1" height="4.2"/>
		<rect x="394.3" y="372.4" class="st3" width="10.1" height="4.2"/>
		<rect x="404.4" y="372.4" class="st13" width="10.1" height="4.2"/>
		<rect x="414.5" y="372.4" class="st3" width="9.9" height="4.2"/>
		<path class="st8" d="M426.8,372.5H271.8c-0.5,0-0.9-0.4-0.9-0.9v-8.6c0-0.5,0.4-0.9,0.9-0.9h155.1c0.5,0,0.9,0.4,0.9,0.9v8.6
			C427.7,372.1,427.3,372.5,426.8,372.5z"/>
		<polygon class="st3" points="343.7,415.2 330.4,415.3 334.1,376.6 344.1,376.6 		"/>
		<g>
			<path class="st8" d="M366.5,449.4h-36.1c-0.7,0-1.3,0.4-1.3,1v54.8c0,0.5,0.6,1,1.3,1h36.1c0.7,0,1.3-0.4,1.3-1v-54.8
				C367.8,449.8,367.2,449.4,366.5,449.4z M363.6,476.4c0,0.2-0.5,0.4-1,0.4h-28.3c-0.6,0-1-0.2-1-0.4v-22.7c0-0.2,0.5-0.4,1-0.4
				h28.3c0.6,0,1,0.2,1,0.4V476.4z"/>
		</g>
		<circle class="st14" cx="347.9" cy="467.5" r="1"/>
		
			<rect x="341.1" y="469.9" transform="matrix(0.7071 -0.7072 0.7072 0.7071 -231.5184 381.7955)" class="st14" width="8" height="0.9"/>
		
			<rect x="350.1" y="466.3" transform="matrix(0.7072 -0.7071 0.7071 0.7072 -229.8611 385.6011)" class="st14" width="0.9" height="8"/>
		<rect x="339.1" y="472.6" class="st3" width="18.4" height="6.1"/>
		<rect x="281.3" y="468.5" class="st15" width="37.4" height="2.8"/>
		<rect x="380.7" y="468.5" class="st15" width="37.4" height="2.8"/>
	</g>
	<g>
		<rect x="103.6" y="590.6" class="st0" width="83.1" height="42.3"/>
		<g>
			<g>
				<path class="st10" d="M195.2,577.1c4.8,0,7.7,3.8,6.4,8.5L186.1,641c-0.8,2.8-3.4,4.7-6.4,4.7h-70.1c-3,0-5.6-1.9-6.4-4.7
					l-15.5-55.4c-1.3-4.7,1.6-8.5,6.4-8.5H195.2z M169.6,624.2c-0.8,4.8,0.6,8.7,3,8.7s5.3-3.9,6.3-8.6l4.6-20.6
					c1-4.7-0.6-8.6-3.6-8.6s-6.2,3.9-6.9,8.7L169.6,624.2z M150.5,624c-0.2,4.8,1.6,8.8,4.1,8.8s4.8-4,5.3-8.8l2-20.2
					c0.5-4.8-1.6-8.8-4.7-8.8c-3,0-5.7,4-5.9,8.8L150.5,624z M131.4,624.1c0.4,4.8,2.7,8.8,5.2,8.8s4.3-4,4.2-8.8l-0.5-20.2
					c-0.1-4.8-2.7-8.8-5.8-8.8s-5.2,4-4.8,8.8L131.4,624.1z M112.4,624.2c1,4.7,3.8,8.6,6.2,8.6s3.8-3.9,3.1-8.7l-3-20.3
					c-0.7-4.8-3.8-8.7-6.8-8.7s-4.7,3.9-3.7,8.6L112.4,624.2z"/>
			</g>
		</g>
		<path class="st10" d="M101.7,581.9L101.7,581.9c-0.7-0.8-0.6-2.1,0.1-2.8l41.3-43.3c0.7-0.8,1.8-0.7,2.5,0.1l0,0
			c0.7,0.8,0.6,2.1-0.1,2.8L104.2,582C103.5,582.8,102.3,582.8,101.7,581.9z"/>
		<path class="st10" d="M190,581.5L190,581.5c0.8-0.6,1-1.9,0.4-2.8l-34.3-54.9c-0.6-0.9-1.7-1.1-2.5-0.5l0,0
			c-0.8,0.6-1,1.9-0.4,2.8l34.3,54.9C188.1,582,189.2,582.2,190,581.5z"/>
	</g>
</g>
</svg>
