<?xml version="1.0" encoding="utf-8"?>
<!-- Generator: Adobe Illustrator 23.0.0, SVG Export Plug-In . SVG Version: 6.00 Build 0)  -->
<svg version="1.1" id="Layer_1" xmlns="http://www.w3.org/2000/svg" xmlns:xlink="http://www.w3.org/1999/xlink" x="0px" y="0px"
	 viewBox="0 0 800 800" style="enable-background:new 0 0 800 800;" xml:space="preserve">
<style type="text/css">
	.st0{fill:#FFFFFF;}
	.st1{fill:#454D57;}
	.st2{fill:#DC5053;}
	.st3{fill:#E7E6E8;}
	.st4{fill:#464E57;}
	.st5{fill:#B7B8BA;}
	.st6{fill:#2E3640;}
	.st7{fill:#73BCC4;}
	.st8{fill:#5E9BA3;}
	.st9{fill:#EAC78E;}
	.st10{fill:#282928;}
	.st11{fill:#F6F4F4;}
	.st12{fill:#C0C0C0;}
	.st13{fill:#556E82;}
	.st14{fill:#435B73;}
</style>
<g>
	<g>
		<g>
			<path class="st0" d="M262.9,583.2c-4.2,21,9.5,41.5,30.5,45.6s41.5-9.5,45.6-30.5s-9.5-41.5-30.5-45.6S267.1,562.2,262.9,583.2z
				 M336.6,597.8c-1.3,6.6-4.3,12.4-8.5,17.1c-0.2,0.2-0.4,0.5-0.6,0.7c-2.3,2.4-4.8,4.5-7.6,6.2c-0.2,0.1-0.4,0.2-0.5,0.3
				c-0.7,0.4-1.3,0.7-2,1.1c-0.5,0.3-1,0.5-1.6,0.8c-0.4,0.2-0.8,0.3-1.1,0.5c-0.8,0.3-1.7,0.7-2.6,0.9c-0.6,0.2-1.3,0.4-1.9,0.6
				c-5.1,1.3-10.6,1.5-16.2,0.5c-5.5-1.1-10.5-3.4-14.8-6.6c-0.5-0.4-1.1-0.8-1.6-1.3c-0.7-0.6-1.4-1.2-2-1.8
				c-0.3-0.3-0.6-0.6-0.9-0.9c-0.4-0.4-0.8-0.9-1.2-1.3c-0.5-0.6-1-1.2-1.4-1.8c-0.1-0.2-0.3-0.3-0.4-0.5c-1.9-2.6-3.5-5.5-4.7-8.6
				c-0.1-0.3-0.2-0.6-0.3-0.9c-2.1-5.9-2.7-12.5-1.3-19.1c2.9-14.7,14.3-25.6,28.1-28.5c0.2,0,0.4-0.1,0.5-0.1
				c1.3-0.3,2.5-0.4,3.8-0.5c3.3-0.3,6.8-0.1,10.2,0.6c3.5,0.7,6.7,1.8,9.7,3.4c1.2,0.6,2.3,1.3,3.3,2c0.2,0.1,0.3,0.2,0.5,0.3
				C333.1,568.7,339.6,583.1,336.6,597.8z"/>
		</g>
		<g>
			<path class="st1" d="M173.9,454.4c-3.2,16.3,7.4,32.1,23.7,35.4c16.3,3.2,32.1-7.4,35.4-23.7c3.2-16.3-7.4-32.1-23.7-35.4
				C192.9,427.6,177.1,438.2,173.9,454.4z M231,465.8c-1,5.1-3.4,9.6-6.6,13.3c-0.2,0.2-0.3,0.4-0.5,0.5c-1.7,1.8-3.7,3.5-5.9,4.8
				c-0.1,0.1-0.3,0.2-0.4,0.3c-0.5,0.3-1,0.6-1.5,0.8c-0.4,0.2-0.8,0.4-1.2,0.6c-0.3,0.1-0.6,0.3-0.9,0.4c-0.7,0.3-1.3,0.5-2,0.7
				c-0.5,0.2-1,0.3-1.5,0.4c-4,1-8.2,1.2-12.5,0.3c-4.3-0.8-8.2-2.6-11.4-5.1c-0.4-0.3-0.8-0.6-1.2-1c-0.5-0.5-1.1-0.9-1.6-1.4
				c-0.2-0.2-0.5-0.5-0.7-0.7c-0.3-0.3-0.6-0.7-0.9-1c-0.4-0.4-0.8-0.9-1.1-1.4c-0.1-0.1-0.2-0.3-0.3-0.4c-1.5-2-2.7-4.3-3.6-6.7
				c-0.1-0.2-0.2-0.5-0.3-0.7c-1.6-4.6-2.1-9.7-1-14.8c2.3-11.4,11.1-19.8,21.8-22.1c0.1,0,0.3,0,0.4-0.1c1-0.2,2-0.3,3-0.4
				c2.6-0.2,5.2-0.1,7.9,0.4c2.7,0.5,5.2,1.4,7.5,2.6c0.9,0.5,1.8,1,2.6,1.5c0.1,0.1,0.2,0.2,0.3,0.2
				C228.3,443.2,233.2,454.4,231,465.8z"/>
		</g>
		
			<ellipse transform="matrix(0.2431 -0.97 0.97 0.2431 -111.0824 511.335)" class="st1" cx="272.1" cy="326.8" rx="30.1" ry="30.1"/>
		<g>
			<path class="st0" d="M100.4,274.2c-3.2,16.3,7.4,32.1,23.7,35.4c16.3,3.2,32.1-7.4,35.4-23.7s-7.4-32.1-23.7-35.4
				C119.4,247.3,103.6,257.9,100.4,274.2z M157.5,285.5c-1,5.1-3.4,9.6-6.6,13.3c-0.2,0.2-0.3,0.4-0.5,0.5c-1.7,1.9-3.7,3.5-5.9,4.8
				c-0.1,0.1-0.3,0.2-0.4,0.3c-0.5,0.3-1,0.6-1.5,0.8c-0.4,0.2-0.8,0.4-1.2,0.6c-0.3,0.1-0.6,0.3-0.9,0.4c-0.7,0.3-1.3,0.5-2,0.7
				c-0.5,0.2-1,0.3-1.5,0.4c-4,1-8.2,1.2-12.5,0.4c-4.3-0.9-8.2-2.6-11.4-5.1c-0.4-0.3-0.8-0.6-1.2-1c-0.5-0.5-1.1-0.9-1.6-1.4
				c-0.2-0.2-0.5-0.5-0.7-0.7c-0.3-0.3-0.6-0.7-0.9-1c-0.4-0.4-0.8-0.9-1.1-1.4c-0.1-0.1-0.2-0.3-0.3-0.4c-1.5-2-2.7-4.3-3.6-6.7
				c-0.1-0.2-0.2-0.5-0.3-0.7c-1.6-4.6-2.1-9.7-1-14.8c2.3-11.4,11.1-19.8,21.8-22.1c0.1,0,0.3,0,0.4-0.1c1-0.2,2-0.3,3-0.4
				c2.6-0.2,5.2-0.1,7.9,0.4s5.2,1.4,7.5,2.6c0.9,0.5,1.8,1,2.6,1.5c0.1,0.1,0.2,0.1,0.3,0.2C154.8,263,159.7,274.1,157.5,285.5z"/>
		</g>
		<g>
			<path class="st0" d="M471.8,236.5c-2,9.9,4.5,19.5,14.4,21.5s19.5-4.5,21.5-14.4s-4.5-19.5-14.4-21.5
				C483.4,220.1,473.7,226.6,471.8,236.5z M506.5,243.4c-0.6,3.1-2,5.9-4,8.1c-0.1,0.1-0.2,0.2-0.3,0.3c-1.1,1.1-2.3,2.1-3.6,2.9
				c-0.1,0-0.2,0.1-0.3,0.1c-0.3,0.2-0.6,0.4-0.9,0.5c-0.3,0.1-0.5,0.2-0.8,0.4c-0.2,0.1-0.3,0.1-0.5,0.2c-0.4,0.2-0.8,0.3-1.2,0.4
				c-0.3,0.1-0.6,0.2-0.9,0.3c-2.4,0.6-5,0.7-7.6,0.2c-2.6-0.5-5-1.6-6.9-3.1c-0.3-0.2-0.5-0.4-0.7-0.6c-0.3-0.3-0.7-0.6-1-0.9
				c-0.1-0.1-0.3-0.3-0.4-0.4c-0.2-0.2-0.4-0.4-0.6-0.6c-0.2-0.3-0.5-0.5-0.7-0.8c-0.1-0.1-0.1-0.2-0.2-0.2c-0.9-1.2-1.7-2.6-2.2-4
				c-0.1-0.1-0.1-0.3-0.2-0.4c-1-2.8-1.3-5.9-0.6-9c1.4-6.9,6.8-12,13.2-13.4c0.1,0,0.2,0,0.3,0c0.6-0.1,1.2-0.2,1.8-0.3
				c1.6-0.1,3.2-0.1,4.8,0.3c1.6,0.3,3.1,0.9,4.5,1.6c0.6,0.3,1.1,0.6,1.6,0.9c0.1,0,0.1,0.1,0.2,0.1
				C504.9,229.7,507.9,236.4,506.5,243.4z"/>
		</g>
		<g>
			<path class="st1" d="M263.6,216.9c-2,9.9,4.5,19.5,14.4,21.5s19.5-4.5,21.5-14.4c2-9.9-4.5-19.5-14.4-21.5
				C275.2,200.6,265.6,207,263.6,216.9z M298.4,223.8c-0.6,3.1-2,5.9-4,8.1c-0.1,0.1-0.2,0.2-0.3,0.3c-1.1,1.1-2.3,2.1-3.6,2.9
				c-0.1,0-0.2,0.1-0.3,0.1c-0.3,0.2-0.6,0.4-0.9,0.5c-0.3,0.1-0.5,0.2-0.8,0.4c-0.2,0.1-0.3,0.1-0.5,0.2c-0.4,0.2-0.8,0.3-1.2,0.4
				c-0.3,0.1-0.6,0.2-0.9,0.3c-2.4,0.6-5,0.7-7.6,0.2c-2.6-0.5-5-1.6-7-3.1c-0.3-0.2-0.5-0.4-0.7-0.6c-0.3-0.3-0.7-0.6-1-0.9
				c-0.1-0.1-0.3-0.3-0.4-0.4c-0.2-0.2-0.4-0.4-0.6-0.6c-0.2-0.3-0.5-0.5-0.7-0.8c-0.1-0.1-0.1-0.2-0.2-0.2c-0.9-1.2-1.7-2.6-2.2-4
				c0-0.1-0.1-0.3-0.2-0.4c-1-2.8-1.3-5.9-0.6-9c1.4-6.9,6.8-12,13.2-13.4c0.1,0,0.2,0,0.3,0c0.6-0.1,1.2-0.2,1.8-0.3
				c1.6-0.1,3.2-0.1,4.8,0.3c1.6,0.3,3.1,0.9,4.5,1.6c0.5,0.3,1.1,0.6,1.6,0.9c0.1,0,0.1,0.1,0.2,0.1
				C296.7,210.1,299.7,216.9,298.4,223.8z"/>
		</g>
		<g>
			<path class="st1" d="M401.2,442.5c-3.2,16.3,7.4,32.1,23.7,35.4s32.1-7.4,35.4-23.7c3.2-16.3-7.4-32.1-23.7-35.4
				C420.3,415.6,404.4,426.2,401.2,442.5z M458.3,453.8c-1,5.1-3.4,9.6-6.6,13.3c-0.2,0.2-0.3,0.4-0.5,0.5c-1.7,1.8-3.7,3.5-5.9,4.8
				c-0.1,0.1-0.3,0.2-0.4,0.3c-0.5,0.3-1,0.6-1.6,0.8c-0.4,0.2-0.8,0.4-1.2,0.6c-0.3,0.1-0.6,0.3-0.9,0.4c-0.7,0.3-1.3,0.5-2,0.7
				c-0.5,0.2-1,0.3-1.5,0.4c-4,1-8.2,1.2-12.5,0.3c-4.3-0.8-8.2-2.6-11.4-5.1c-0.4-0.3-0.8-0.6-1.2-1c-0.5-0.5-1.1-0.9-1.6-1.4
				c-0.2-0.2-0.4-0.5-0.7-0.7c-0.3-0.3-0.6-0.7-0.9-1c-0.4-0.4-0.8-0.9-1.1-1.4c-0.1-0.1-0.2-0.3-0.3-0.4c-1.5-2-2.7-4.3-3.6-6.7
				c-0.1-0.2-0.2-0.5-0.3-0.7c-1.6-4.6-2.1-9.7-1.1-14.8c2.3-11.4,11.1-19.8,21.8-22.1c0.1,0,0.3,0,0.4-0.1c1-0.2,2-0.3,3-0.4
				c2.6-0.2,5.2-0.1,7.9,0.4s5.2,1.4,7.5,2.6c0.9,0.5,1.8,1,2.6,1.5c0.1,0.1,0.2,0.2,0.3,0.2C455.6,431.3,460.6,442.4,458.3,453.8z"
				/>
		</g>
		<g>
			<path class="st1" d="M137.7,386.9L137.7,386.9c0.2,0.5,0,1.2-0.6,1.4l-7.4,3.1c-0.5,0.2-1.2,0-1.4-0.6l0,0
				c-0.2-0.5,0-1.2,0.6-1.4l7.4-3.1C136.8,386.1,137.5,386.4,137.7,386.9z"/>
			<path class="st1" d="M159.5,374.6L159.5,374.6c0.2,0.5,0,1.2-0.6,1.4l-7.4,3.1c-0.5,0.2-1.2,0-1.4-0.6l0,0
				c-0.2-0.5,0-1.2,0.6-1.4l7.4-3.1C158.7,373.8,159.3,374.1,159.5,374.6z"/>
			<path class="st1" d="M139.8,376.5L139.8,376.5c0.4-0.4,0.4-1.1,0-1.5l-5.6-5.7c-0.4-0.4-1.1-0.4-1.5,0l0,0
				c-0.4,0.4-0.4,1.1,0,1.5l5.6,5.7C138.6,376.9,139.3,377,139.8,376.5z"/>
			<path class="st1" d="M155.2,396.2L155.2,396.2c0.4-0.4,0.4-1.1,0-1.5l-5.6-5.7c-0.4-0.4-1.1-0.4-1.5,0l0,0
				c-0.4,0.4-0.4,1.1,0,1.5l5.6,5.7C154.1,396.6,154.8,396.6,155.2,396.2z"/>
		</g>
		<g>
			<path class="st1" d="M317.3,245.3L317.3,245.3c0.2,0.5,0,1.2-0.6,1.4l-7.4,3.1c-0.5,0.2-1.2,0-1.4-0.6l0,0
				c-0.2-0.5,0-1.2,0.6-1.4l7.4-3.1C316.4,244.5,317,244.8,317.3,245.3z"/>
			<path class="st1" d="M339.1,233L339.1,233c0.2,0.5,0,1.2-0.6,1.4l-7.4,3.1c-0.5,0.2-1.2,0-1.4-0.6l0,0c-0.2-0.5,0-1.2,0.6-1.4
				l7.4-3.1C338.2,232.2,338.9,232.5,339.1,233z"/>
			<path class="st1" d="M319.3,234.9L319.3,234.9c0.4-0.4,0.4-1.1,0-1.5l-5.6-5.7c-0.4-0.4-1.1-0.4-1.5,0l0,0
				c-0.4,0.4-0.4,1.1,0,1.5l5.6,5.7C318.2,235.4,318.9,235.4,319.3,234.9z"/>
			<path class="st1" d="M334.8,254.6L334.8,254.6c0.4-0.4,0.4-1.1,0-1.5l-5.6-5.7c-0.4-0.4-1.1-0.4-1.5,0l0,0
				c-0.4,0.4-0.4,1.1,0,1.5l5.6,5.7C333.7,255,334.4,255,334.8,254.6z"/>
		</g>
		<g>
			<path class="st1" d="M356,512.9L356,512.9c0.2,0.5,0,1.2-0.6,1.4l-7.4,3.1c-0.5,0.2-1.2,0-1.4-0.6l0,0c-0.2-0.5,0-1.2,0.6-1.4
				l7.4-3.1C355.1,512.1,355.8,512.4,356,512.9z"/>
			<path class="st1" d="M377.8,500.6L377.8,500.6c0.2,0.5,0,1.2-0.6,1.4l-7.4,3.1c-0.5,0.2-1.2,0-1.4-0.6l0,0
				c-0.2-0.5,0-1.2,0.6-1.4l7.4-3.1C377,499.8,377.6,500.1,377.8,500.6z"/>
			<path class="st1" d="M358.1,502.6L358.1,502.6c0.4-0.4,0.4-1.1,0-1.5l-5.6-5.7c-0.4-0.4-1.1-0.4-1.5,0l0,0
				c-0.4,0.4-0.4,1.1,0,1.5l5.6,5.7C356.9,503,357.6,503,358.1,502.6z"/>
			<path class="st1" d="M373.5,522.2L373.5,522.2c0.4-0.4,0.4-1.1,0-1.5l-5.6-5.7c-0.4-0.4-1.1-0.4-1.5,0l0,0
				c-0.4,0.4-0.4,1.1,0,1.5l5.6,5.7C372.4,522.7,373.1,522.7,373.5,522.2z"/>
		</g>
		<g>
			<path class="st1" d="M390.7,679.1L390.7,679.1c0.2,0.5,0,1.2-0.6,1.4l-7.4,3.1c-0.5,0.2-1.2,0-1.4-0.6l0,0
				c-0.2-0.5,0-1.2,0.6-1.4l7.4-3.1C389.8,678.3,390.5,678.5,390.7,679.1z"/>
			<path class="st1" d="M412.5,666.8L412.5,666.8c0.2,0.5,0,1.2-0.6,1.4l-7.4,3.1c-0.6,0.2-1.2,0-1.4-0.6l0,0
				c-0.2-0.5,0-1.2,0.6-1.4l7.4-3.1C411.6,666,412.3,666.2,412.5,666.8z"/>
			<path class="st1" d="M392.8,668.7L392.8,668.7c0.4-0.4,0.4-1.1,0-1.5l-5.6-5.7c-0.4-0.4-1.1-0.4-1.5,0l0,0
				c-0.4,0.4-0.4,1.1,0,1.5l5.6,5.7C391.6,669.1,392.3,669.1,392.8,668.7z"/>
			<path class="st1" d="M408.2,688.4L408.2,688.4c0.4-0.4,0.4-1.1,0-1.5l-5.6-5.7c-0.4-0.4-1.1-0.4-1.5,0l0,0
				c-0.4,0.4-0.4,1.1,0,1.5l5.6,5.7C407.1,688.8,407.8,688.8,408.2,688.4z"/>
		</g>
		<ellipse class="st1" cx="180.7" cy="129.8" rx="18.5" ry="18.5"/>
		<ellipse class="st1" cx="184.7" cy="585.8" rx="18.5" ry="18.5"/>
	</g>
	
		<rect x="353.2" y="218.1" transform="matrix(0.9629 -0.2699 0.2699 0.9629 -92.3173 148.3963)" class="st2" width="280.5" height="383.6"/>
	
		<rect x="365.3" y="230.4" transform="matrix(0.9629 -0.2699 0.2699 0.9629 -91.8252 148.1799)" class="st0" width="255.2" height="355.2"/>
	
		<rect x="367.7" y="247.6" transform="matrix(0.9629 -0.2699 0.2699 0.9629 -98.7514 132.2411)" class="st3" width="127.6" height="355.2"/>
	<path class="st4" d="M493.4,210.8l-41.6,11.7c1-2.3,1.4-4.9,1-7.5c-1-8.1-8.4-13.9-16.5-12.9s-13.9,8.4-12.9,16.5
		c0.5,4.2,2.8,7.8,6,10.1l-39,11l8.2,29.3l103-28.9L493.4,210.8z M437.1,207.8c5-0.6,9.5,2.9,10.1,7.9c0.6,5-2.9,9.5-7.9,10.1
		c-5,0.6-9.5-2.9-10.1-7.9C428.6,212.9,432.1,208.4,437.1,207.8z"/>
	<path class="st5" d="M556.4,294.4c0.7,2.4,0.4,4.6-0.6,4.9L463,326.1c-1,0.3-2.4-1.4-3.1-3.8l0,0c-0.7-2.4-0.4-4.6,0.6-4.9
		l92.8-26.9C554.3,290.3,555.7,292,556.4,294.4L556.4,294.4z"/>
	<path class="st5" d="M560.2,307.7c0.7,2.4,0.3,4.6-0.9,5l-108.5,31.4c-1.2,0.4-2.8-1.3-3.5-3.7l0,0c-0.7-2.4-0.3-4.6,0.9-5
		l108.5-31.4C558,303.6,559.6,305.3,560.2,307.7L560.2,307.7z"/>
	<path class="st5" d="M610.6,481.4c0.7,2.3,0.2,4.4-1,4.8l-108.5,31.4c-1.2,0.3-2.7-1.2-3.4-3.5l0,0c-0.7-2.3-0.2-4.4,1-4.8
		l108.5-31.4C608.4,477.6,609.9,479.1,610.6,481.4L610.6,481.4z"/>
	<path class="st5" d="M614.7,495.8c0.7,2.3,0.2,4.4-1,4.8L505.2,532c-1.2,0.3-2.7-1.2-3.4-3.5l0,0c-0.7-2.3-0.2-4.4,1-4.8
		l108.5-31.4C612.5,491.9,614.1,493.5,614.7,495.8L614.7,495.8z"/>
	<path class="st5" d="M584.2,390.2c0.6,1.9,0,3.8-1.2,4.1l-108.5,31.4c-1.2,0.3-2.7-0.9-3.2-2.8l0,0c-0.6-1.9,0-3.8,1.2-4.1
		l108.5-31.4C582.2,387,583.6,388.3,584.2,390.2L584.2,390.2z"/>
	<path class="st5" d="M587.9,403.2c0.6,1.9,0.2,3.7-0.9,4l-93.9,27.2c-1.1,0.3-2.4-1-2.9-2.9l0,0c-0.6-1.9-0.2-3.7,0.9-4l93.9-27.2
		C586,400,587.4,401.3,587.9,403.2L587.9,403.2z"/>
	<path class="st5" d="M580.2,376.4c0.6,1.9,0.2,3.7-0.9,4l-93,26.9c-1,0.3-2.3-1-2.9-2.9l0,0c-0.6-1.9-0.2-3.7,0.9-4l93-26.9
		C578.3,373.2,579.6,374.5,580.2,376.4L580.2,376.4z"/>
	<path class="st6" d="M430.3,316.1l-8.1-4.6c-0.8-0.4-1.8-0.2-2.2,0.6l-18,31.6l-16.6-9.1c-0.8-0.5-1.8-0.2-2.2,0.6l-4.7,8.1
		c-0.5,0.8-0.2,1.8,0.6,2.2l26.3,14.3c0.8,0.5,1.8,0.2,2.2-0.6l3.3-5.8c0,0,0,0,0,0l0.5-0.9l0.8-1.4c0,0,0,0,0,0l18.7-32.8
		C431.3,317.5,431,316.6,430.3,316.1z"/>
	<path class="st6" d="M458.2,412.8l-8.1-4.6c-0.8-0.4-1.8-0.2-2.2,0.6l-18,31.6l-16.6-9.1c-0.8-0.5-1.8-0.2-2.2,0.6l-4.7,8.1
		c-0.4,0.8-0.2,1.8,0.6,2.2l26.3,14.3c0.8,0.5,1.8,0.2,2.2-0.6l3.3-5.8c0,0,0,0,0,0l0.5-0.9l0.8-1.4c0,0,0,0,0,0l18.7-32.8
		C459.3,414.2,459,413.2,458.2,412.8z"/>
	<path class="st6" d="M485.1,505.4l-8.1-4.6c-0.8-0.4-1.8-0.2-2.2,0.6l-18,31.6l-16.6-9.1c-0.8-0.5-1.8-0.2-2.2,0.6l-4.7,8.1
		c-0.4,0.8-0.2,1.8,0.6,2.2l26.3,14.3c0.8,0.5,1.8,0.2,2.2-0.6l3.3-5.8c0,0,0,0,0,0l0.5-0.9l0.8-1.4c0,0,0,0,0,0l18.7-32.8
		C486.1,506.8,485.8,505.8,485.1,505.4z"/>
	<g>
		<g>
			<path class="st6" d="M338.6,478L491,644.5c0.9,1,2.5,1.1,3.5,0.2l9.5-8.7c1-0.9,1-2.5,0.1-3.5L351.7,466.1
				c-0.1-0.1-0.3-0.3-0.4-0.4l-13,11.8C338.4,477.7,338.5,477.9,338.6,478z"/>
			<path class="st7" d="M500.1,639.6l3.8-3.5c1-0.9,1-2.5,0.1-3.5L351.7,466.1c-0.1-0.1-0.3-0.3-0.4-0.4l-3.8,3.5
				c0.1,0.1,0.2,0.2,0.3,0.3c0,0,0.1,0.1,0.1,0.1l152.4,166.5C501.1,637.1,501.1,638.7,500.1,639.6z"/>
			<path class="st8" d="M343.2,473.8l152.4,166.5c0.9,1,2,1.6,2.3,1.3l3.3-3.1c0.3-0.3-0.1-1.4-1.1-2.4L347.8,469.6
				c0,0-0.1-0.1-0.1-0.1c-0.1-0.1-0.2-0.2-0.3-0.3l-4.6,4.2C343,473.5,343.1,473.6,343.2,473.8z"/>
		</g>
		<path class="st9" d="M351.3,465.7c0,0-21-11.4-21.8-10.8s8.8,22.6,8.8,22.6L351.3,465.7z"/>
		<path class="st10" d="M337.3,458.4c0,0-7.5-3.9-7.8-3.5c-0.4,0.5,2.8,8.1,2.8,8.1L337.3,458.4z"/>
	</g>
	<g>
		<path class="st11" d="M537.1,174.4h130.2c0,0,14.6,3.9,12.9,17.8l0.1,183.2H580.3c0,0,2.8,14.7-14,15.5c0,0-12.2,0.8-15.1-14.3
			L550.7,190C550.7,190,551.7,178,537.1,174.4z"/>
		<path class="st12" d="M566.7,391.4l122.6,0.2c0,0,12.8-4.2,10.7-16.2H579.3C579.3,375.4,581.7,390.3,566.7,391.4z"/>
		<path class="st12" d="M550.7,188.4h-29.2c0-8.7,6.6-14.6,14.6-14.6C544.2,173.7,550.7,180.3,550.7,188.4z"/>
		<path class="st2" d="M622.5,290.4l-5.8,10.8l-1.5,2.7l-0.8,1.5l-3.1,5.9l-1.3,2.3l-10.9,20.4c-0.6,1-1.4,1-2,0L593,326
			c-0.5-1-1.9-1.9-3.1-1.9l-9.8-0.2c-1.2,0-1.6-0.9-1-1.9l11.3-18.5l0.8-1.3l0,0l3.9-6.4l0.7-1.1l8.8-14.3l12.4,7L622.5,290.4z"/>
		<path class="st2" d="M652.4,325.1l-9.8-0.2c-1.2,0-2.6,0.8-3.2,1.8l-4.4,7.9c-0.6,1-1.5,1-2-0.1l-10.2-20.8l-1.2-2.4l-2.6-5.4
			l-0.8-1.6l-1.6-3.2l-5.4-11l5.6-2.9l12.6-6.5l9,15.9l0.6,1.1l2.9,5.1l0.8,1.5l0,0l10.6,18.8C654.1,324.3,653.6,325.2,652.4,325.1z
			"/>
		<path class="st13" d="M655.3,280.9c-0.3,1.2-0.3,2.6-0.2,4.1c0.2,2,0.5,4,0.2,5.7c-0.1,0.7-0.3,1.3-0.6,1.9c-1.9,3.1-7.4,3.4-10,6
			c-1.2,1.1-1.9,2.8-2.7,4.5c-0.9,2.1-1.9,4.3-3.7,5.3c-3.2,1.8-8.1-0.7-11.7,0.1c-1.7,0.4-3.4,1.8-5.1,3c-1.7,1.2-3.4,2.3-5.3,2.3
			c-1.8,0-3.5-1.2-5.1-2.5c-1.7-1.3-3.3-2.8-5.1-3.3c-3.6-1-8.6,1.3-11.6-0.6c-1.7-1-2.6-3.2-3.4-5.3c-0.7-1.8-1.4-3.5-2.5-4.7
			c-2.5-2.6-8-3.1-9.8-6.3c-0.3-0.5-0.4-0.9-0.5-1.5c-0.4-2,0.2-4.3,0.4-6.5c0.2-1.3,0.2-2.5-0.1-3.7c-0.7-2.9-4-5.6-5-8.6
			c-0.2-0.6-0.3-1.1-0.3-1.8c0.1-3.7,4.7-6.7,5.7-10.2c0.1-0.2,0.1-0.5,0.2-0.8c0.3-1.8-0.1-3.8-0.3-5.7c-0.2-1.9-0.2-3.8,0.7-5.2
			c1.9-3.1,7.4-3.4,10-5.9s3.1-8,6.3-9.8c3.2-1.8,8.1,0.7,11.7-0.1c3.5-0.9,6.6-5.4,10.4-5.3c3.7,0.1,6.7,4.7,10.2,5.7
			c3.5,1,8.6-1.3,11.6,0.6c3.1,1.9,3.4,7.4,5.9,10c2.5,2.6,8,3.1,9.8,6.3c0.8,1.4,0.7,3,0.5,4.8c-0.3,2.2-0.8,4.5-0.4,6.5
			c0,0.1,0.1,0.2,0.1,0.4c0.9,3.5,5.4,6.6,5.3,10.4c0,0.5-0.1,1-0.3,1.6C659.7,275.3,656.2,278,655.3,280.9z"/>
		<path class="st14" d="M647.3,270.4c0-0.1,0-0.1,0-0.2c0,0,0-0.1,0-0.1c0-0.1,0-0.1,0-0.2c0,0,0-0.1,0-0.1c0-0.1,0-0.1-0.1-0.2
			c-0.7-2.1-3-4-3.5-6c-0.6-2.5,1.1-5.9-0.1-8.1c-1.2-2.2-5.1-2.6-6.8-4.4c-1.8-1.8-2-5.7-4.1-7c-2.2-1.3-5.6,0.3-8.1-0.4
			c-2.4-0.7-4.5-3.9-7.1-4c-2.6,0-4.8,3.1-7.2,3.7c-2.5,0.6-5.9-1.1-8.1,0.1c-2.2,1.2-2.6,5.1-4.4,6.8c-1.8,1.8-5.7,2-7,4.1
			c-0.2,0.4-0.4,0.9-0.5,1.3v0c0,0,0.2,0,0.2,0.1c0,0.1,0.8,0.3,0.8,0.3v0c0,0-0.8,0.2-0.8,0.3c0,0.1,0,0.2,0,0.3c0,0.1,0,0.3,0,0.4
			c0,0.4,0.1,0.7,0.1,1.1c0,0,0,0.1,0,0.1c0,0.1,0,0.2,0,0.3c0,0.4-0.3,1.1-0.3,1.1l0,0c0,0,0.5,0.5,0.5,0.7c0,0.1,0,0.2,0,0.3
			c0,0.6,0,1.3-0.2,1.8c0,0.1,0,0.1-0.1,0.2s-0.1,0.1-0.1,0.2c0,0.1-0.1,0.1-0.1,0.2c0,0.1-0.1,0.1-0.1,0.2c0,0.1-0.1,0.1-0.1,0.2
			c-0.1,0.1-0.1,0.2-0.2,0.3c-0.6,1-1.4,1.9-2.1,2.8c-0.1,0.1-0.1,0.1-0.2,0.2c-0.3,0.4-0.6,0.9-0.8,1.3c0,0.1-0.1,0.1-0.1,0.2
			c0,0,0,0.1-0.1,0.1c0,0,0,0,0,0c0,0,0,0.1,0,0.1c0,0,0,0.1,0,0.1c0,0,0,0,0,0.1c0,0.1,0,0.1,0,0.2c0,0.1,0,0.1,0,0.2
			c0,0.1,0,0.2,0,0.3c-0.1,2.6,3.1,4.8,3.7,7.2c0,0.1,0,0.2,0.1,0.2c0,0,0.9,0,0.9,0l0,0c0,0-0.8,0.2-0.8,0.2s0,0.2,0,0.3
			c0,0.1,0,0.2,0,0.3c0,0.2-0.2,0.7-0.2,0.7v0l1,0.4v0.3c0,0.1,0,0.3-0.1,0.4c0,0.1,0,0.3-0.1,0.4c0,0,0,0.1,0,0.1
			c-0.1,0.5-0.2,1-0.2,1.5c0,0.1,0,0.2,0,0.3c0,0.2-0.1,0.4-0.1,0.6c0,0.4,0,0.8,0,1.1v0c0.1,0.5,0.2,1,0.4,1.5
			c0.1,0.2,0.3,0.4,0.4,0.6c0.3,0.4,0.7,0.6,1.1,0.9c0.1,0.1,0.2,0.1,0.4,0.2c0.2,0.1,0.4,0.2,0.5,0.3c0.2,0.1,0.3,0.1,0.5,0.2
			c0.3,0.1,0.7,0.3,1,0.4c0.3,0.1,0.5,0.2,0.7,0.3c0.2,0.1,0.5,0.2,0.7,0.4c0.5,0.3,1,0.6,1.4,1c1.7,1.8,1.9,5.5,4.1,6.8
			c2.1,1.3,5.5-0.3,7.9,0.4c0.7,0.2,1.3,0.6,2,1.1c0.1,0.1,0.2,0.1,0.2,0.2c0.1,0.1,0.2,0.1,0.3,0.2c0.2,0.2,0.4,0.3,0.6,0.5
			c0.1,0.1,0.3,0.2,0.4,0.3c0.3,0.3,0.7,0.5,1.1,0.8c0.7,0.5,1.5,0.8,2.3,0.8c2.6,0,4.7-3,7.1-3.6c0.9-0.2,1.9-0.1,3,0
			c0.2,0,0.4,0,0.6,0.1c0.1,0,0.3,0,0.4,0.1c1.3,0.2,2.5,0.3,3.5,0c0.2,0,0.3-0.1,0.5-0.2c0.1,0,0.1-0.1,0.2-0.1
			c0.1-0.1,0.3-0.2,0.4-0.3c1.7-1.5,2.1-4.7,3.7-6.3c1.2-1.1,3.2-1.6,4.8-2.4c0.1,0,0.2-0.1,0.2-0.1c0.4-0.2,0.9-0.5,1.2-0.8
			c0.2-0.2,0.4-0.5,0.6-0.7c0.1-0.1,0.1-0.2,0.1-0.3c0-0.1,0.1-0.2,0.1-0.3c0.2-0.6,0.3-1.3,0.3-2c0-0.1,0-0.2,0-0.3s0-0.2,0-0.3
			c0-0.1,0-0.2,0-0.3c0-0.1,0-0.1,0-0.2c0,0,0,0,0-0.1c0-0.1,0-0.2,0-0.3s0-0.2,0-0.3c0,0,0-0.1,0-0.2c0-0.2-0.1-0.4-0.1-0.6
			c0,0,0-0.1,0-0.1c0-0.4-0.1-0.7-0.1-1.1c0-0.2,0-0.4,0-0.6c0-0.1,0-0.1,0-0.2c0-0.1,0-0.3,0-0.4c0-0.1,0-0.1,0-0.2v-0.4
			c0-0.1,0-0.1,0-0.2c0,0,0-0.1,0-0.2c0-0.1,0-0.1,0.1-0.2c0.2-0.7,0.6-1.3,1.1-2c0.1-0.1,0.2-0.3,0.3-0.4c0.1-0.1,0.1-0.1,0.2-0.2
			c0.2-0.2,0.3-0.4,0.5-0.6c0.1-0.1,0.2-0.3,0.3-0.4c0.3-0.4,0.5-0.7,0.8-1.1c0.1-0.2,0.3-0.5,0.4-0.7c0.1-0.1,0.1-0.3,0.2-0.5
			c0.1-0.4,0.2-0.8,0.2-1.2C647.3,270.7,647.3,270.6,647.3,270.4z M641.4,270.8c-0.2,13.4-11.3,24-24.7,23.8
			c-13.4-0.2-24-11.3-23.8-24.7c0.2-13.4,11.3-24,24.7-23.8C631,246.4,641.7,257.4,641.4,270.8z"/>
		<g>
			<path class="st14" d="M628.5,266.3l-4.6-0.7c-1.2-0.2-2.6-1.2-3.1-2.3l-2-4.2c-0.5-1.1-1.4-1.1-1.9,0l-2.1,4.2
				c-0.5,1.1-1.9,2.1-3.1,2.2l-4.6,0.6c-1.2,0.2-1.5,1-0.6,1.8l3.3,3.3c0.8,0.8,1.4,2.5,1.2,3.7l-0.8,4.6c-0.2,1.2,0.5,1.7,1.6,1.1
				l4.2-2.1c1.1-0.5,2.8-0.5,3.8,0l4.1,2.2c1.1,0.6,1.8,0.1,1.6-1.1l-0.8-4.6c-0.2-1.2,0.4-2.8,1.2-3.6l3.4-3.2
				C630,267.3,629.7,266.5,628.5,266.3z"/>
		</g>
	</g>
</g>
</svg>
