<?xml version="1.0" encoding="utf-8"?>
<!-- Generator: Adobe Illustrator 23.0.0, SVG Export Plug-In . SVG Version: 6.00 Build 0)  -->
<svg version="1.1" id="Layer_1" xmlns="http://www.w3.org/2000/svg" xmlns:xlink="http://www.w3.org/1999/xlink" x="0px" y="0px"
	 viewBox="0 0 800 800" style="enable-background:new 0 0 800 800;" xml:space="preserve">
<style type="text/css">
	.st0{opacity:0.53;}
	.st1{fill:#C9C9C9;}
	.st2{fill:#7F7F7F;}
	.st3{fill:#30373F;}
	.st4{fill:#2F363E;}
	.st5{fill:#DC5053;}
	.st6{fill:#73BCC4;}
	.st7{fill:#435B73;}
	.st8{fill:#FDC665;}
	.st9{fill:#E2AF5B;}
	.st10{fill:#F8BD36;}
	.st11{opacity:0.41;fill:none;stroke:#FFFFFF;stroke-width:2.6125;stroke-miterlimit:10;enable-background:new    ;}
	.st12{opacity:0.11;fill:#FFFFFF;enable-background:new    ;}
	.st13{opacity:7.000000e-02;fill:#231F20;enable-background:new    ;}
	.st14{fill:#FCED99;}
	.st15{fill:#969F9B;}
	.st16{fill:#3A5F93;}
	.st17{fill:#0E4877;}
</style>
<g>
	<g class="st0">
		<path class="st1" d="M671.1,424.7L671,653.2c0,0.6,0,1.2-0.1,1.9c-0.9,12-11,21.5-23.3,21.5l-497-0.1c-12.3,0-22.4-9.5-23.3-21.5
			c0-0.6-0.1-1.2-0.1-1.9l0.1-228.5c0-0.3,0-0.5,0-0.8c0.4-12.5,10.7-22.6,23.4-22.6l496.9,0.1c12.7,0,22.9,10,23.4,22.6
			C671.1,424.2,671.1,424.5,671.1,424.7z"/>
		<path class="st2" d="M671.1,423.9c-0.4-12.5-10.7-22.6-23.4-22.6l-76.3,0l-344.3-0.1l-76.3,0c-12.7,0-23,10-23.4,22.6
			c0,0.3,0,0.5,0,0.8l0,62.7l0,103.1l0,0l0,62.7c0,0.3,0,0.5,0,0.8c0,0,0,0,0,0c0,0.3,0,0.7,0.1,1c0,0,0,0.1,0,0.1
			c0,0.1,0,0.1,0,0.2c0,0.3,0.1,0.6,0.1,1c0,0.1,0,0.2,0,0.3c0,0.3,0.1,0.5,0.1,0.8c0,0.1,0,0.3,0.1,0.4c0,0.2,0.1,0.5,0.2,0.7
			c0,0.1,0.1,0.3,0.1,0.4c0,0.2,0.1,0.4,0.2,0.7c0,0.2,0.1,0.3,0.1,0.5c0.1,0.2,0.1,0.4,0.2,0.6c0,0.2,0.1,0.3,0.2,0.5
			c0.1,0.2,0.1,0.4,0.2,0.5c0.1,0.2,0.1,0.3,0.2,0.5c0.1,0.2,0.1,0.3,0.2,0.5c0.1,0.2,0.2,0.3,0.2,0.5c0.1,0.2,0.2,0.3,0.2,0.5
			c0.1,0.2,0.2,0.3,0.3,0.5s0.2,0.3,0.3,0.5c0.1,0.2,0.2,0.3,0.3,0.5c0.1,0.2,0.2,0.3,0.3,0.5c0.1,0.2,0.2,0.3,0.3,0.5
			c0.1,0.2,0.2,0.3,0.3,0.4c0.1,0.2,0.2,0.3,0.3,0.5c0.1,0.1,0.2,0.3,0.3,0.4c0.1,0.2,0.2,0.3,0.3,0.5c0.1,0.1,0.2,0.3,0.3,0.4
			c0.1,0.2,0.3,0.3,0.4,0.4c0.1,0.1,0.2,0.3,0.3,0.4c0.1,0.1,0.3,0.3,0.4,0.4c0.1,0.1,0.2,0.2,0.4,0.4c0.1,0.1,0.3,0.3,0.4,0.4
			c0.1,0.1,0.3,0.2,0.4,0.3c0.1,0.1,0.3,0.3,0.4,0.4c0.1,0.1,0.3,0.2,0.4,0.3c0.2,0.1,0.3,0.2,0.4,0.4c0.1,0.1,0.3,0.2,0.4,0.3
			c0.2,0.1,0.3,0.2,0.5,0.3c0.1,0.1,0.3,0.2,0.4,0.3c0.2,0.1,0.3,0.2,0.5,0.3c0.2,0.1,0.3,0.2,0.5,0.3c0.2,0.1,0.3,0.2,0.5,0.3
			c0.2,0.1,0.3,0.2,0.5,0.3c0.2,0.1,0.3,0.2,0.5,0.3c0.2,0.1,0.3,0.2,0.5,0.2c0.2,0.1,0.3,0.2,0.5,0.2c0.2,0.1,0.3,0.2,0.5,0.2
			c0.2,0.1,0.3,0.2,0.5,0.2c0.2,0.1,0.3,0.1,0.5,0.2c0.2,0.1,0.3,0.1,0.5,0.2c0.2,0.1,0.4,0.1,0.5,0.2c0.2,0.1,0.3,0.1,0.5,0.2
			c0.2,0.1,0.4,0.1,0.6,0.2c0.2,0,0.3,0.1,0.5,0.1c0.2,0,0.4,0.1,0.6,0.1c0.2,0,0.3,0.1,0.5,0.1c0.2,0,0.4,0.1,0.6,0.1
			c0.2,0,0.3,0.1,0.5,0.1c0.2,0,0.4,0.1,0.7,0.1c0.2,0,0.3,0,0.5,0.1c0.3,0,0.5,0,0.8,0.1c0.1,0,0.3,0,0.4,0c0.4,0,0.8,0,1.2,0h0
			l0,0l76.3,0l344.3,0.1l76.3,0c0.4,0,0.8,0,1.2,0c0.1,0,0.3,0,0.4,0c0.3,0,0.5,0,0.8-0.1c0.2,0,0.3,0,0.5,0c0.2,0,0.4,0,0.7-0.1
			c0.2,0,0.3,0,0.5-0.1c0.2,0,0.4-0.1,0.6-0.1c0.2,0,0.3-0.1,0.5-0.1c0.2,0,0.4-0.1,0.6-0.1c0.2,0,0.3-0.1,0.5-0.1
			c0.2,0,0.4-0.1,0.6-0.2c0.2,0,0.3-0.1,0.5-0.2c0.2-0.1,0.4-0.1,0.6-0.2c0.2-0.1,0.3-0.1,0.5-0.2c0.2-0.1,0.4-0.1,0.5-0.2
			c0.2-0.1,0.3-0.1,0.5-0.2c0.2-0.1,0.3-0.2,0.5-0.2c0.2-0.1,0.3-0.2,0.5-0.2c0.2-0.1,0.3-0.2,0.5-0.3c0.2-0.1,0.3-0.2,0.5-0.3
			c0.2-0.1,0.3-0.2,0.5-0.3c0.2-0.1,0.3-0.2,0.5-0.3c0.2-0.1,0.3-0.2,0.5-0.3c0.2-0.1,0.3-0.2,0.4-0.3c0.2-0.1,0.3-0.2,0.4-0.3
			c0.2-0.1,0.3-0.2,0.4-0.3c0.1-0.1,0.3-0.2,0.4-0.3c0.1-0.1,0.3-0.2,0.4-0.3c0.1-0.1,0.3-0.2,0.4-0.3c0.1-0.1,0.3-0.2,0.4-0.4
			c0.1-0.1,0.3-0.2,0.4-0.4s0.3-0.3,0.4-0.4s0.3-0.3,0.4-0.4s0.3-0.3,0.4-0.4c0.1-0.1,0.2-0.3,0.4-0.4s0.2-0.3,0.4-0.4
			c0.1-0.1,0.2-0.3,0.3-0.4c0.1-0.1,0.2-0.3,0.3-0.4c0.1-0.1,0.2-0.3,0.3-0.4c0.1-0.2,0.2-0.3,0.3-0.4c0.1-0.2,0.2-0.3,0.3-0.5
			c0.1-0.2,0.2-0.3,0.3-0.5c0.1-0.2,0.2-0.3,0.3-0.5c0.1-0.2,0.2-0.3,0.3-0.5c0.1-0.2,0.2-0.3,0.3-0.5c0.1-0.2,0.2-0.3,0.2-0.5
			c0.1-0.2,0.2-0.3,0.3-0.5c0.1-0.2,0.2-0.3,0.2-0.5c0.1-0.2,0.2-0.4,0.2-0.5c0.1-0.2,0.1-0.3,0.2-0.5c0.1-0.2,0.1-0.4,0.2-0.6
			c0.1-0.2,0.1-0.3,0.2-0.5c0.1-0.2,0.1-0.4,0.2-0.6c0-0.2,0.1-0.3,0.1-0.4c0.1-0.2,0.1-0.4,0.2-0.7c0-0.1,0.1-0.3,0.1-0.4
			c0.1-0.2,0.1-0.5,0.2-0.7c0-0.1,0.1-0.2,0.1-0.4c0.1-0.3,0.1-0.5,0.1-0.8c0-0.1,0-0.2,0-0.3c0-0.3,0.1-0.6,0.1-1
			c0-0.1,0-0.1,0-0.2c0,0,0-0.1,0-0.1c0-0.3,0-0.7,0.1-1v0c0-0.3,0-0.5,0-0.8l0,0l0-62.7l0-103.1l0-62.7
			C671.1,424.5,671.1,424.2,671.1,423.9z M646.6,596.1c-9.2,3.2-18.3,7.7-27.1,13.5c-18.1,11.9-31.8,27.6-40.2,44.3L219,653.8
			c-8.4-16.7-22.1-32.4-40.2-44.3c-10.5-6.9-21.6-12-32.6-15.3l0-110.7c11.1-3.3,22.1-8.3,32.6-15.2c18.2-12,31.9-27.6,40.3-44.4
			l360.2,0.1c8.4,16.8,22.1,32.4,40.2,44.4c8.8,5.8,17.9,10.3,27.1,13.5L646.6,596.1z"/>
		<path class="st2" d="M331.5,612.1c-2.6-2.1-5-4.4-7.4-6.8C304.7,585.9,294,560,294,532.5c0-56.8,46.2-102.9,103-102.9
			c56.8,0,102.9,46.2,102.9,103c0,27.5-10.7,53.3-30.2,72.8s-45.3,30.1-72.8,30.1C372.8,635.5,349.9,627.2,331.5,612.1z
			 M460.4,455.5c-17.3-14.2-39.3-22.8-63.4-22.8c-26.7,0-51.7,10.4-70.6,29.2c-18.9,18.8-29.3,43.9-29.3,70.6
			c0,26.7,10.4,51.7,29.2,70.6c18.8,18.9,43.9,29.3,70.6,29.3c26.7,0,51.7-10.4,70.6-29.2c18.9-18.8,29.3-43.9,29.3-70.6l0,0
			C496.7,501.6,482.6,473.9,460.4,455.5z"/>
		<ellipse class="st2" cx="396.9" cy="532.6" rx="88.7" ry="88.7"/>
		<path class="st1" d="M387.3,589.1c-12.6-0.6-24.8-3.4-36.5-8.5l0-28.7c6.7,3.4,14,6.2,21.8,8.5c7.8,2.3,14.7,3.4,20.7,3.4
			c4.9,0,8.5-0.6,10.8-1.8c2.3-1.2,3.4-3.2,3.4-5.9c0-1.9-0.8-3.5-2.5-4.8c-1.6-1.3-4.4-2.8-8.2-4.5c-3.8-1.7-9-3.7-15.5-6.1
			c-7.3-2.7-13.2-5.8-17.7-9.1c-4.5-3.4-7.8-7.2-9.8-11.3c-2-4.2-3.1-9.4-3.1-15.6c0-9.5,3.1-16.9,9.2-22.3s15.3-8.7,27.5-9.9
			l0-19.2h17.9l0,19c11.5,0.6,23,3.5,34.7,8.5l-10.3,24.6c-12-5.4-22.9-8.1-32.6-8.1c-4.6,0-7.8,0.6-9.7,1.7c-1.9,1.1-2.8,2.8-2.8,5
			c0,1.9,0.7,3.5,2,4.7c1.3,1.2,3.7,2.6,7,4.1c3.3,1.5,8,3.3,13.9,5.3c12,4.3,20.7,9.1,25.9,14.6s7.9,12.5,7.9,21
			c0,9.7-3.1,17.5-9.2,23.6c-6.1,6-15.1,9.8-26.8,11.2l0,23.1h-17.9L387.3,589.1z"/>
	</g>
	<path class="st3" d="M405.3,741c0.1,19.9-10.4,34.5-28.8,42.2c-19.1,8-36.9,4.4-51.5-9.8c-14.3-13.9-17.8-31.4-10.8-49.9
		c1.7-4.4,8.6-10.3,12.2-9.7c8.3,1.3,9.6,7.9,5.8,15.7c-5.8,11.8-2.5,23.6,7.2,30.1c7.5,5,19.3,7.6,28.2,6
		c11.6-2.2,18.6-12.7,18.8-25.2c0.5-23-0.1-46.1,0.4-69.1c0.2-7.5,3.2-15,3.2-22.5c0-4.3-3.5-8.7-4.7-11.5c2.1-11.1,5.4-20,5.4-29.1
		c0.4-77.1,0.1-154.2-0.1-230.9h11.8c0.4,85.4-0.1,172.5,0.3,258.9C402.8,671.1,405.1,705.9,405.3,741z"/>
	<path class="st4" d="M402.6,80.6c-0.4-19.1,0.2-38.3-0.4-57.4c-0.1-3.9-3.6-7.6-5.5-11.4c-2,3.7-5.5,7.3-5.6,11
		c-0.6,20.1-0.2,40.2-0.3,60.3c0,8.4-2.7,13.9-10.2,16.1c0,0,0,0,0,0c0.8,0.5,1.7,1,2.8,1.5c1.3,0.6,2.7,1.1,4.4,1.5c0,0,0,0,0,0
		c0,0,0.1,0,0.1,0h0c0.1,0,0.1,0.1,0.2,0.1c0,0,0,0,0,0c1.1,0.3,2.6,0.5,3.8,0.7c0.3,0,0.5,0.1,0.7,0.1c0.5,0.1,0.8,0.1,1.1,0.1
		l3.8,0.2c0.3,0,0.6,0,0.9,0l3.5-0.3c0.1,0,0.2,0,0.2,0l1.9-0.2c2.8-0.4,5.9-0.9,9.3-1.8c1.4-0.4,2.9-0.8,4.4-1.3
		C405.7,98.5,402.8,91.2,402.6,80.6z"/>
	<path class="st5" d="M383.5,100.8C383.5,100.8,383.4,100.8,383.5,100.8c-48.5,16.6-85,43.9-112.4,75.4c-3.4,3.9-6.7,8-9.8,12
		c-2.4,3-4.6,6.1-6.9,9.2c-1.5,2.1-2.9,4.1-4.3,6.2c-2.1,3.1-4.2,6.3-6.1,9.5c-1.3,2.1-2.6,4.2-3.8,6.4c-0.6,1.1-1.3,2.1-1.9,3.2
		c-1.8,3.2-3.6,6.4-5.3,9.6c-1.1,2.1-2.2,4.3-3.3,6.5c-0.5,1.1-1.1,2.1-1.6,3.2c-1,2.1-2.1,4.3-3.1,6.5c-1,2.1-2,4.3-2.9,6.5
		c-1.9,4.3-3.5,8.6-5.2,12.8C189,338.3,188.5,402.5,188.5,404v0c0,0-0.2,0-0.2,0c-7.8-22.9-21.4-38.7-45.2-42
		c-23.3-3.2-40.5,8-55.1,30c5.4-67.9,27.1-125.1,67.1-174.7c56.6-70.2,130.3-109.4,220.4-117c2-0.2,3.7-0.5,5.2-0.9c0,0,0,0,0,0
		C381.5,99.8,382.4,100.3,383.5,100.8z"/>
	<path class="st6" d="M292.4,405.3v-0.3C292.4,405.2,292.4,405.2,292.4,405.3C292.5,405.3,292.4,405.3,292.4,405.3L292.4,405.3
		c0,0.1,0,0.1,0,0.1C292.4,405.4,292.4,405.4,292.4,405.3z"/>
	<path class="st7" d="M388.2,102.7c0,0,0-0.1,0-0.1c0,0-0.1,0-0.1,0c-76.7,73.1-92,228.6-95,283.4c-0.1,2.6-0.3,4.9-0.3,7
		c-0.1,2.6-0.2,4.9-0.3,6.7c0,0.3,0,0.6,0,0.9c-0.1,2.4-0.1,3.9-0.1,4.6c-9.3-27.7-25.7-44.3-55.1-43.3
		c-22.2,0.7-38.3,13.6-48.7,42.2v0v0c0,0,0,0,0,0c0-1.8,0.6-65.8,28.4-136.2c1.7-4.3,3.3-8.5,5.2-12.8c0.9-2.1,1.8-4.3,2.9-6.5
		c1-2.1,2-4.3,3-6.5c0.5-1.1,1-2.1,1.6-3.2c1.1-2.1,2.2-4.3,3.3-6.5c1.7-3.2,3.5-6.4,5.3-9.6c0.6-1.1,1.2-2.1,1.9-3.2
		c1.3-2.1,2.5-4.3,3.8-6.4c2-3.2,4-6.3,6.1-9.5c1.4-2.1,2.8-4.2,4.3-6.2c2.2-3.1,4.5-6.2,6.9-9.2c3.1-4.1,6.4-8.1,9.8-12
		c27.4-31.5,63.8-58.8,112.3-75.4c0,0,0.1,0.3,0.1,0.3c1.3,0.6,2.7,0.5,4.4,1.8c0,0,0,0,0,0c0,0,0.1,0,0.1,0h0
		C388.1,102.9,388.1,102.6,388.2,102.7z"/>
	<path class="st5" d="M604.6,404.9c-12.3-30.9-28.3-43.7-53.3-43.3c-23.8,0.3-40.2,13.8-50.8,42.4c0-2.8,0.7-150.4-96.3-301
		c2.8-0.4,5.9-0.9,9.3-1.8C629.5,193.9,604.6,404.9,604.6,404.9z"/>
	<path class="st7" d="M712,409.9c-10.4-30.4-27.5-51.3-62-47.9c-24.8,2.5-38.6,19-45.4,42.8c0,0,23.5-207-191.2-303.7
		c1.4-0.4,2.9-0.8,4.4-1.3c0.8,0.1,1.7,0.2,2.5,0.2c132.6,6.5,250.9,104.4,281.9,233.7C708.2,358.4,710.3,383.8,712,409.9z"/>
	<path class="st5" d="M393.9,103.3c0,0,4.9,307.1,4,303.9c-2.2-7.6-7.5-19-15.6-27.1c-13.9-13.8-28.6-22.1-52.3-16.8
		c-20.4,4.6-31.5,20.2-37.5,41.9c0,0,0,0-0.1,0.1c0,0-0.3,0-0.3,0c0,0-0.3,0-0.3,0c0,0,0,0,0-0.1v-0.3c0-0.7,0.3-2.2,0.4-4.6
		c0-0.3,0.2-0.6,0.2-0.9c0-1.8,0.2-4.1,0.3-6.8c0.1-2.1,0.2-4.2,0.4-6.8c2.9-54.7,18.1-210.1,94.8-283.3c0,0,0,0,0,0
		c0,0,2.9,0.3,4.1,0.5c0.3,0,0.5-0.1,0.7,0C393.2,103.4,393.6,103.3,393.9,103.3z"/>
	<path class="st7" d="M404.3,103l-10.3,0.3c0,0,3.7,0.2,0,0l4,303.9c0,0,2.6-16.1,13.3-27.3c17.8-18.6,55.9-32.4,83.1,10.3
		c2.6,4,3.8,8.6,6.4,13.7c0,0,0,0,0,0C500.7,401.2,501.3,253.6,404.3,103z"/>
	<path class="st8" d="M306.7,717.5v12.2c0,2.6-18.4,4.8-43.2,5.4c-4.4,0.1-9,0.2-13.7,0.2c-31.4,0-56.8-2.5-56.8-5.5v-12.2
		L306.7,717.5L306.7,717.5z"/>
	<path class="st9" d="M193,717.5v12.2c0,3,25.5,5.5,56.8,5.5s56.8-2.5,56.8-5.5v-12.2H193z"/>
	<path class="st10" d="M306.7,718.1c0,3-25.5,5.5-56.8,5.5s-56.8-2.5-56.8-5.5c0-3,25.5-5.5,56.8-5.5S306.7,715.1,306.7,718.1z"/>
	<path class="st10" d="M306.7,717.5c0,3-25.5,5.5-56.8,5.5s-56.8-2.5-56.8-5.5c0-3,25.5-5.5,56.8-5.5S306.7,714.4,306.7,717.5z"/>
	<path class="st11" d="M301.2,717.3c0,2.3-23,4.2-51.4,4.2s-51.4-1.9-51.4-4.2c0-2.3,23-4.2,51.4-4.2S301.2,715,301.2,717.3z"/>
	<path class="st8" d="M301.2,703v12.2c0,2.6-18.4,4.8-43.2,5.4c-4.4,0.1-9,0.2-13.7,0.2c-31.4,0-56.8-2.5-56.8-5.5V703H301.2z"/>
	<path class="st9" d="M187.5,703v12.2c0,3,25.5,5.5,56.8,5.5c31.4,0,56.8-2.5,56.8-5.5V703H187.5z"/>
	<path class="st12" d="M301.2,703.6c0,3-25.5,5.5-56.8,5.5c-31.4,0-56.8-2.5-56.8-5.5c0-3,25.5-5.5,56.8-5.5
		C275.8,698.1,301.2,700.6,301.2,703.6z"/>
	<path class="st8" d="M301.2,703c0,3-25.5,5.5-56.8,5.5c-31.4,0-56.8-2.5-56.8-5.5c0-3,25.5-5.5,56.8-5.5
		C275.8,697.5,301.2,699.9,301.2,703z"/>
	<path class="st10" d="M295.8,702.8c0,2.3-23,4.2-51.4,4.2s-51.4-1.9-51.4-4.2c0-2.3,23-4.2,51.4-4.2S295.8,700.5,295.8,702.8z"/>
	<path class="st8" d="M327,688.3v12.2c0,2.6-18.4,4.8-43.2,5.4c-4.4,0.1-9,0.2-13.7,0.2c-31.4,0-56.8-2.5-56.8-5.5v-12.2L327,688.3
		L327,688.3z"/>
	<path class="st9" d="M213.3,688.3v12.2c0,3,25.5,5.5,56.8,5.5s56.8-2.5,56.8-5.5v-12.2H213.3z"/>
	<path class="st12" d="M327,688.9c0,3-25.5,5.5-56.8,5.5s-56.8-2.5-56.8-5.5c0-3,25.5-5.5,56.8-5.5S327,685.9,327,688.9z"/>
	<path class="st10" d="M327,688.3c0,3-25.5,5.5-56.8,5.5s-56.8-2.5-56.8-5.5c0-3,25.5-5.5,56.8-5.5S327,685.2,327,688.3z"/>
	<path class="st11" d="M321.6,688.1c0,2.3-23,4.2-51.4,4.2s-51.4-1.9-51.4-4.2c0-2.3,23-4.2,51.4-4.2S321.6,685.8,321.6,688.1z"/>
	<path class="st8" d="M295.8,674.7v12.2c0,2.6-18.4,4.8-43.2,5.4c-4.4,0.1-9,0.2-13.7,0.2c-31.4,0-56.8-2.5-56.8-5.5v-12.2
		L295.8,674.7L295.8,674.7z"/>
	<path class="st9" d="M182.1,674.7v12.2c0,3,25.5,5.5,56.8,5.5c31.4,0,56.8-2.5,56.8-5.5v-12.2H182.1z"/>
	<path class="st12" d="M295.8,675.3c0,3-25.5,5.5-56.8,5.5c-31.4,0-56.8-2.5-56.8-5.5c0-3,25.5-5.5,56.8-5.5
		C270.3,669.8,295.8,672.3,295.8,675.3z"/>
	<path class="st10" d="M295.8,674.7c0,3-25.5,5.5-56.8,5.5c-31.4,0-56.8-2.5-56.8-5.5c0-3,25.5-5.5,56.8-5.5
		C270.3,669.1,295.8,671.6,295.8,674.7z"/>
	<path class="st11" d="M290.3,674.5c0,2.3-23,4.2-51.4,4.2s-51.4-1.9-51.4-4.2c0-2.3,23-4.2,51.4-4.2S290.3,672.2,290.3,674.5z"/>
	<path class="st8" d="M306.7,659.4v12.2c0,2.6-18.4,4.8-43.2,5.4c-4.4,0.1-9,0.2-13.7,0.2c-31.4,0-56.8-2.5-56.8-5.5v-12.2
		L306.7,659.4L306.7,659.4z"/>
	<path class="st9" d="M193,659.4v12.2c0,3,25.5,5.5,56.8,5.5c31.4,0,56.8-2.5,56.8-5.5v-12.2H193z"/>
	<path class="st10" d="M306.7,660.1c0,3-25.5,5.5-56.8,5.5c-31.4,0-56.8-2.5-56.8-5.5c0-3,25.5-5.5,56.8-5.5
		C281.3,654.5,306.7,657,306.7,660.1z"/>
	<path class="st11" d="M306.7,659.4c0,3-25.5,5.5-56.8,5.5c-31.4,0-56.8-2.5-56.8-5.5c0-3,25.5-5.5,56.8-5.5
		S306.7,656.4,306.7,659.4z"/>
	<path class="st10" d="M301.2,659.2c0,2.3-23,4.2-51.4,4.2s-51.4-1.9-51.4-4.2c0-2.3,23-4.2,51.4-4.2
		C278.2,655.1,301.2,656.9,301.2,659.2z"/>
	<path class="st8" d="M290.3,645.5v12.2c0,2.6-18.4,4.8-43.2,5.4c-4.4,0.1-9,0.2-13.7,0.2c-31.4,0-56.8-2.5-56.8-5.5v-12.2H290.3z"
		/>
	<path class="st9" d="M176.6,645.5v12.2c0,3,25.5,5.5,56.8,5.5s56.8-2.5,56.8-5.5v-12.2H176.6z"/>
	<path class="st12" d="M290.3,646.1c0,3-25.5,5.5-56.8,5.5s-56.8-2.5-56.8-5.5c0-3,25.5-5.5,56.8-5.5S290.3,643.1,290.3,646.1z"/>
	<path class="st10" d="M290.3,645.5c0,3-25.5,5.5-56.8,5.5s-56.8-2.5-56.8-5.5c0-3,25.5-5.5,56.8-5.5S290.3,642.4,290.3,645.5z"/>
	<path class="st11" d="M284.9,645.3c0,2.3-23,4.2-51.4,4.2s-51.4-1.9-51.4-4.2c0-2.3,23-4.2,51.4-4.2S284.9,643,284.9,645.3z"/>
	<circle class="st13" cx="169.8" cy="727.2" r="59.3"/>
	<circle class="st9" cx="167.9" cy="727.2" r="59.3"/>
	<ellipse class="st10" cx="162.3" cy="728.8" rx="59.3" ry="59.3"/>
	<path class="st14" d="M162.4,672.6c-31,0-56.2,25.2-56.2,56.2c0,31,25.2,56.2,56.2,56.2c31,0,56.2-25.2,56.2-56.2
		C218.6,697.8,193.4,672.6,162.4,672.6z M162.4,783c-29.9,0-54.2-24.3-54.2-54.2s24.3-54.2,54.2-54.2s54.2,24.3,54.2,54.2
		C216.5,758.7,192.3,783,162.4,783z"/>
	
		<ellipse transform="matrix(6.479988e-02 -0.9979 0.9979 6.479988e-02 -575.4329 843.6261)" class="st9" cx="162.4" cy="728.8" rx="40.5" ry="40.5"/>
	<ellipse class="st14" cx="163.9" cy="728.8" rx="38.1" ry="38.1"/>
	<path class="st9" d="M159.2,748.7c-4.5-0.4-8.7-1.6-12.8-3.6l0.5-10.1c2.3,1.3,4.8,2.4,7.6,3.4s5.2,1.4,7.3,1.5
		c1.7,0.1,3-0.1,3.8-0.5s1.3-1.1,1.3-2c0-0.7-0.2-1.3-0.8-1.8c-0.6-0.5-1.5-1.1-2.8-1.7c-1.3-0.7-3.1-1.5-5.4-2.4
		c-2.5-1.1-4.6-2.2-6.1-3.5c-1.5-1.3-2.6-2.7-3.3-4.2c-0.7-1.5-0.9-3.4-0.8-5.6c0.2-3.4,1.3-5.9,3.6-7.7c2.2-1.8,5.5-2.8,9.9-3.1
		l0.3-6.8l6.3,0.3l-0.3,6.7c4,0.4,8.1,1.6,12.1,3.5l-4,8.5c-4.2-2.1-8-3.2-11.4-3.4c-1.6-0.1-2.8,0.1-3.5,0.4s-1,0.9-1.1,1.7
		c0,0.7,0.2,1.2,0.6,1.7s1.3,1,2.4,1.6c1.2,0.6,2.8,1.3,4.8,2.1c4.2,1.7,7.2,3.5,8.9,5.6s2.6,4.5,2.4,7.6c-0.2,3.4-1.4,6.2-3.6,8.2
		c-2.3,2-5.5,3.2-9.7,3.5l-0.4,8.2l-6.3-0.3L159.2,748.7z"/>
	<g>
		<g>
			<path class="st15" d="M576.6,489.9L576.6,489.9c-10.4,0.1-20,1.8-28.3,5.2c-7.8,3.2-14.7,7.7-20.5,13.6
				c-8.3,8.5-14.3,19.8-17.3,32.8c-2,8.8-2.1,15.7-2.1,17.2v37h29.9v-37.1l0-0.1l0-0.2c0-1,0.3-18.1,10.9-28.9
				c6.4-6.4,15.4-9.6,27.6-9.6v-29.9C576.8,489.9,576.7,489.9,576.6,489.9z"/>
			<path class="st2" d="M643.2,541.5c-3-13-9-24.3-17.3-32.8c-5.8-5.9-12.7-10.5-20.5-13.6c-8.4-3.4-17.9-5.1-28.3-5.2v0
				c-0.1,0-0.2,0-0.3,0v29.9c12.2,0,21.2,3.2,27.6,9.6c10.6,10.7,10.9,27.7,10.9,28.8v0v37.3h29.9v-37
				C645.3,557.2,645.3,550.3,643.2,541.5z"/>
		</g>
		<g>
			<path class="st16" d="M500.5,595.3c-10.5,0-19.1,8.1-19.1,18.1v144.5c0,10,8.5,18.1,19.1,18.1h76.3V595.3H500.5z"/>
			<path class="st17" d="M653.2,595.3h-76.3V776h76.3c10.5,0,19.1-8.1,19.1-18.1V613.4C672.3,603.4,663.8,595.3,653.2,595.3z"/>
		</g>
		<path class="st1" d="M607.4,671.1c0-15.8-12.8-28.6-28.6-28.6s-28.6,12.8-28.6,28.6c0,10,5.1,18.8,12.9,23.9v47.9
			c0,1.3,1.1,2.4,2.4,2.4h26.6c1.3,0,2.4-1.1,2.4-2.4V695C602.2,689.9,607.4,681.1,607.4,671.1z"/>
	</g>
</g>
</svg>
