<svg xmlns="http://www.w3.org/2000/svg" width="41.414" height="41.414" viewBox="0 0 41.414 41.414">
  <path id="Subtraction_10" data-name="Subtraction 10" d="M36.414,41.414H5a5.006,5.006,0,0,1-5-5V5A5.006,5.006,0,0,1,5,0H36.414a5.006,5.006,0,0,1,5,5V36.414A5.006,5.006,0,0,1,36.414,41.414ZM12.287,14.793a1.673,1.673,0,0,0-1.67,1.671V29a1.673,1.673,0,0,0,1.67,1.671H29A1.673,1.673,0,0,0,30.668,29V16.465A1.673,1.673,0,0,0,29,14.793H25.655V12.287a1.673,1.673,0,0,0-1.671-1.67H17.3a1.672,1.672,0,0,0-1.67,1.67v2.506Zm9.525,12.95H19.472a.92.92,0,0,1-.919-.919V24.819H16.548a.92.92,0,0,1-.919-.919V21.561a.92.92,0,0,1,.919-.92h2.005V18.636a.92.92,0,0,1,.919-.919h2.339a.92.92,0,0,1,.919.919v2.005h2.005a.92.92,0,0,1,.919.92V23.9a.92.92,0,0,1-.919.919H22.73v2.005A.92.92,0,0,1,21.812,27.743Zm1.754-12.95H17.717V13.624a.92.92,0,0,1,.92-.919h4.01a.92.92,0,0,1,.919.919v1.168Z" fill="#db4343"/>
</svg>
