<svg xmlns="http://www.w3.org/2000/svg" width="41.414" height="41.414" viewBox="0 0 41.414 41.414">
  <path id="Subtraction_7" data-name="Subtraction 7" d="M36.414,41.414H5a5.006,5.006,0,0,1-5-5V5A5.006,5.006,0,0,1,5,0H36.414a5.006,5.006,0,0,1,5,5V36.414A5.006,5.006,0,0,1,36.414,41.414ZM22.6,10.354a.851.851,0,0,0-.67.32l-8.8,11.407a.877.877,0,0,0,.688,1.42h5.306l-1.761,6.758a.847.847,0,0,0-.04.263.866.866,0,0,0,.863.868.851.851,0,0,0,.67-.32l8.8-11.407a.877.877,0,0,0-.688-1.42H21.659l1.761-6.758a.871.871,0,0,0-.824-1.13Z" fill="#dc956c"/>
</svg>
