<svg xmlns="http://www.w3.org/2000/svg" width="41.414" height="41.414" viewBox="0 0 41.414 41.414">
  <path id="Subtraction_6" data-name="Subtraction 6" d="M36.414,41.414H5a5.006,5.006,0,0,1-5-5V5A5.006,5.006,0,0,1,5,0H36.414a5.006,5.006,0,0,1,5,5V36.414A5.006,5.006,0,0,1,36.414,41.414ZM10,11.578a.817.817,0,0,0-.817.809V28.328A2.864,2.864,0,0,0,12.04,31.19H28.8l.072,0,.071,0h.266a2.864,2.864,0,0,0,2.861-2.861V20.561a.819.819,0,0,0-.818-.817h-3.27V12.387a.817.817,0,0,0-1.226-.707l-3.679,2.137-4.088-2.154a.815.815,0,0,0-.772,0L14.129,13.9l-3.723-2.208A.823.823,0,0,0,10,11.578ZM29.209,29.554a1.228,1.228,0,0,1-1.227-1.226V21.38h2.452v6.949A1.227,1.227,0,0,1,29.209,29.554Zm-2.592,0H12.04a1.227,1.227,0,0,1-1.226-1.226v-14.5l2.861,1.708a.816.816,0,0,0,.817.021l4.088-2.244,4.108,2.158a.82.82,0,0,0,.789,0l2.861-1.635V28.328a2.836,2.836,0,0,0,.277,1.224Zm-8.38-10.208V25.2h1.247V23.195a1.67,1.67,0,0,0,1.3.519,2.211,2.211,0,0,0,1.093-.275,2,2,0,0,0,.772-.777,2.559,2.559,0,0,0,0-2.327,1.991,1.991,0,0,0-.772-.776,2.2,2.2,0,0,0-1.093-.276,1.662,1.662,0,0,0-1.352.56v-.5Zm-4.5,2.744h1.193l1.08,1.56H17.4l-1.256-1.8A1.827,1.827,0,0,0,17.3,20.083,1.951,1.951,0,0,0,17,19a1.92,1.92,0,0,0-.844-.7,3.12,3.12,0,0,0-1.291-.248H12.444v5.6h1.3V22.092Zm6.824.6a1.043,1.043,0,0,1-.788-.324,1.378,1.378,0,0,1,0-1.736,1.12,1.12,0,0,1,1.576,0,1.378,1.378,0,0,1,0,1.736A1.044,1.044,0,0,1,20.564,22.691ZM14.8,21.058H13.74V19.106H14.8a1.368,1.368,0,0,1,.887.252,1.01,1.01,0,0,1,0,1.444A1.353,1.353,0,0,1,14.8,21.058Z" fill="#a2bf65"/>
</svg>
