<svg xmlns="http://www.w3.org/2000/svg" width="41.414" height="41.414" viewBox="0 0 41.414 41.414">
  <path id="Subtraction_9" data-name="Subtraction 9" d="M36.414,41.414H5a5.006,5.006,0,0,1-5-5V5A5.006,5.006,0,0,1,5,0H36.414a5.006,5.006,0,0,1,5,5V36.414A5.006,5.006,0,0,1,36.414,41.414ZM21.223,10.646a.68.68,0,0,0-.483.2,51.41,51.41,0,0,0-3.928,4.444c-1.765,2.257-3.869,5.439-3.869,7.777a8.281,8.281,0,0,0,16.562,0c0-2.339-2.1-5.52-3.869-7.778a51.308,51.308,0,0,0-3.928-4.443A.683.683,0,0,0,21.223,10.646ZM19.842,27.9a4.145,4.145,0,0,1-4.14-4.141.69.69,0,1,1,1.38,0,2.763,2.763,0,0,0,2.76,2.76.69.69,0,0,1,0,1.381Z" fill="#34b0c0"/>
</svg>
