<svg xmlns="http://www.w3.org/2000/svg" width="41.414" height="41.414" viewBox="0 0 41.414 41.414">
  <path id="Subtraction_5" data-name="Subtraction 5" d="M36.414,41.414H5a5.006,5.006,0,0,1-5-5V5A5.006,5.006,0,0,1,5,0H36.414a5.006,5.006,0,0,1,5,5V36.414A5.006,5.006,0,0,1,36.414,41.414ZM21.383,26.194h0l2.048,2.919V32H33.515v-2.98l.362-1.475a2.567,2.567,0,0,0-1.192-3.026,1.319,1.319,0,0,0-.63-.155,1.512,1.512,0,0,0-.6.128,2.336,2.336,0,0,0-2.326-2.044,2.383,2.383,0,0,0-.937.191l-.114-4.822a1.85,1.85,0,0,0-3.7.041v6.188l-.321-.445a1.836,1.836,0,0,0-1.48-.752,1.888,1.888,0,0,0-.444.054,2.3,2.3,0,1,0-.748,3.288Zm-7.092-4.276a2.291,2.291,0,1,0,2.292,2.291A2.294,2.294,0,0,0,14.291,21.918Zm5.959-5.959a2.292,2.292,0,1,0,2.292,2.291A2.294,2.294,0,0,0,20.25,15.959Zm-5.959,0a2.292,2.292,0,1,0,2.292,2.291A2.294,2.294,0,0,0,14.291,15.959ZM26.209,10A2.292,2.292,0,1,0,28.5,12.291,2.294,2.294,0,0,0,26.209,10ZM20.25,10a2.292,2.292,0,1,0,2.292,2.291A2.294,2.294,0,0,0,20.25,10Zm-5.959,0a2.292,2.292,0,1,0,2.292,2.291A2.294,2.294,0,0,0,14.291,10Z" fill="#63a2c2"/>
</svg>
