<svg xmlns="http://www.w3.org/2000/svg" width="41.414" height="41.414" viewBox="0 0 41.414 41.414">
  <path id="Subtraction_11" data-name="Subtraction 11" d="M36.414,41.414H5a5.006,5.006,0,0,1-5-5V5A5.006,5.006,0,0,1,5,0H36.414a5.006,5.006,0,0,1,5,5V36.414A5.006,5.006,0,0,1,36.414,41.414ZM25.845,29.17h0l2.634,1.756V11.606a.832.832,0,0,0-.878-.878H13.55a.831.831,0,0,0-.878.878V30.927l2.634-1.757,2.634,1.757,2.635-1.757,2.634,1.757,2.635-1.756Zm-.878-3.513H21.454V22.145h3.513v3.512Zm0-6.148H16.185V17.753h8.782v1.756Zm0-3.513H16.185V14.24h8.782V16Z" fill="#bc69a6"/>
</svg>
